%TF.GenerationSoftware,KiCad,Pcbnew,(5.1.10)-1*%
%TF.CreationDate,2021-09-07T15:33:10+07:00*%
%TF.ProjectId,Untitled Factory,556e7469-746c-4656-9420-466163746f72,rev?*%
%TF.SameCoordinates,Original*%
%TF.FileFunction,Copper,L1,Top*%
%TF.FilePolarity,Positive*%
%FSLAX46Y46*%
G04 Gerber Fmt 4.6, Leading zero omitted, Abs format (unit mm)*
G04 Created by KiCad (PCBNEW (5.1.10)-1) date 2021-09-07 15:33:10*
%MOMM*%
%LPD*%
G01*
G04 APERTURE LIST*
%TA.AperFunction,ComponentPad*%
%ADD10R,2.000000X2.000000*%
%TD*%
%TA.AperFunction,ComponentPad*%
%ADD11C,2.000000*%
%TD*%
%TA.AperFunction,ComponentPad*%
%ADD12R,1.524000X1.524000*%
%TD*%
%TA.AperFunction,ComponentPad*%
%ADD13C,1.524000*%
%TD*%
%TA.AperFunction,ComponentPad*%
%ADD14C,2.600000*%
%TD*%
%TA.AperFunction,ComponentPad*%
%ADD15R,2.600000X2.600000*%
%TD*%
%TA.AperFunction,ComponentPad*%
%ADD16O,1.600000X1.600000*%
%TD*%
%TA.AperFunction,ComponentPad*%
%ADD17C,1.600000*%
%TD*%
%TA.AperFunction,ComponentPad*%
%ADD18R,1.700000X1.700000*%
%TD*%
%TA.AperFunction,ComponentPad*%
%ADD19O,1.700000X1.700000*%
%TD*%
%TA.AperFunction,ViaPad*%
%ADD20C,5.000000*%
%TD*%
%TA.AperFunction,ViaPad*%
%ADD21C,0.800000*%
%TD*%
%TA.AperFunction,Conductor*%
%ADD22C,1.000000*%
%TD*%
%TA.AperFunction,Conductor*%
%ADD23C,0.250000*%
%TD*%
%TA.AperFunction,Conductor*%
%ADD24C,0.254000*%
%TD*%
%TA.AperFunction,Conductor*%
%ADD25C,0.100000*%
%TD*%
G04 APERTURE END LIST*
D10*
%TO.P,M1,1*%
%TO.N,+12V*%
X144780000Y-80010000D03*
D11*
%TO.P,M1,2*%
%TO.N,GND*%
X144780000Y-97155000D03*
%TO.P,M1,3*%
X184150000Y-97155000D03*
%TO.P,M1,4*%
%TO.N,+5V*%
X184150000Y-80010000D03*
%TD*%
D12*
%TO.P,U1,1*%
%TO.N,PB12*%
X172212000Y-152374600D03*
D13*
%TO.P,U1,2*%
%TO.N,PB13*%
X172212000Y-149834600D03*
%TO.P,U1,3*%
%TO.N,PB14*%
X172212000Y-147294600D03*
%TO.P,U1,4*%
%TO.N,Net-(U1-Pad4)*%
X172212000Y-144754600D03*
%TO.P,U1,5*%
%TO.N,B_LED*%
X172212000Y-142214600D03*
%TO.P,U1,6*%
%TO.N,Net-(U1-Pad6)*%
X172212000Y-139674600D03*
%TO.P,U1,7*%
%TO.N,Net-(U1-Pad7)*%
X172212000Y-137134600D03*
%TO.P,U1,8*%
%TO.N,Net-(U1-Pad8)*%
X172212000Y-134594600D03*
%TO.P,U1,9*%
%TO.N,Net-(U1-Pad9)*%
X172212000Y-132054600D03*
%TO.P,U1,10*%
%TO.N,PA15*%
X172212000Y-129514600D03*
%TO.P,U1,11*%
%TO.N,Net-(U1-Pad11)*%
X172212000Y-126974600D03*
%TO.P,U1,12*%
%TO.N,Net-(U1-Pad12)*%
X172212000Y-124434600D03*
%TO.P,U1,13*%
%TO.N,PB5*%
X172212000Y-121894600D03*
%TO.P,U1,14*%
%TO.N,Net-(U1-Pad14)*%
X172212000Y-119354600D03*
%TO.P,U1,15*%
%TO.N,Net-(U1-Pad15)*%
X172212000Y-116814600D03*
%TO.P,U1,16*%
%TO.N,PB8*%
X172212000Y-114274600D03*
%TO.P,U1,17*%
%TO.N,Net-(U1-Pad17)*%
X172212000Y-111734600D03*
%TO.P,U1,18*%
%TO.N,+5V*%
X172212000Y-109194600D03*
%TO.P,U1,19*%
%TO.N,GND*%
X172212000Y-106654600D03*
%TO.P,U1,20*%
%TO.N,+3V3*%
X172212000Y-104114600D03*
%TO.P,U1,21*%
%TO.N,Net-(U1-Pad21)*%
X156972000Y-104114600D03*
%TO.P,U1,22*%
%TO.N,Net-(U1-Pad22)*%
X156972000Y-106654600D03*
%TO.P,U1,23*%
%TO.N,Net-(U1-Pad23)*%
X156972000Y-109194600D03*
%TO.P,U1,24*%
%TO.N,Net-(U1-Pad24)*%
X156972000Y-111734600D03*
%TO.P,U1,25*%
%TO.N,Net-(U1-Pad25)*%
X156972000Y-114274600D03*
%TO.P,U1,26*%
%TO.N,Net-(U1-Pad26)*%
X156972000Y-116814600D03*
%TO.P,U1,27*%
%TO.N,TX2*%
X156972000Y-119354600D03*
%TO.P,U1,28*%
%TO.N,RX2*%
X156972000Y-121894600D03*
%TO.P,U1,29*%
%TO.N,Y_LED*%
X156972000Y-124434600D03*
%TO.P,U1,30*%
%TO.N,Net-(U1-Pad30)*%
X156972000Y-126974600D03*
%TO.P,U1,31*%
%TO.N,PA6*%
X156972000Y-129514600D03*
%TO.P,U1,32*%
%TO.N,PA7*%
X156972000Y-132054600D03*
%TO.P,U1,33*%
%TO.N,PB0*%
X156972000Y-134594600D03*
%TO.P,U1,34*%
%TO.N,PB1*%
X156972000Y-137134600D03*
%TO.P,U1,35*%
%TO.N,PB10*%
X156972000Y-139674600D03*
%TO.P,U1,36*%
%TO.N,PB11*%
X156972000Y-142214600D03*
%TO.P,U1,37*%
%TO.N,Net-(U1-Pad37)*%
X156972000Y-144754600D03*
%TO.P,U1,38*%
%TO.N,+3V3*%
X156972000Y-147294600D03*
%TO.P,U1,39*%
%TO.N,GND*%
X156972000Y-149834600D03*
%TO.P,U1,40*%
X156972000Y-152374600D03*
%TD*%
D14*
%TO.P,J7,2*%
%TO.N,GND*%
X155020000Y-69850000D03*
D15*
%TO.P,J7,1*%
%TO.N,Net-(J7-Pad1)*%
X160020000Y-69850000D03*
%TD*%
D14*
%TO.P,J9,4*%
%TO.N,PB0*%
X134670800Y-153074400D03*
%TO.P,J9,3*%
%TO.N,PB10*%
X134670800Y-148074400D03*
%TO.P,J9,2*%
%TO.N,GND*%
X134670800Y-143074400D03*
D15*
%TO.P,J9,1*%
%TO.N,PB1*%
X134670800Y-138074400D03*
%TD*%
D16*
%TO.P,R2,2*%
%TO.N,Y_LED*%
X149123400Y-115417600D03*
D17*
%TO.P,R2,1*%
%TO.N,Net-(J7-Pad1)*%
X149123400Y-105257600D03*
%TD*%
D16*
%TO.P,R1,2*%
%TO.N,B_LED*%
X180340000Y-115417600D03*
D17*
%TO.P,R1,1*%
%TO.N,Net-(J6-Pad1)*%
X180340000Y-105257600D03*
%TD*%
D15*
%TO.P,J12,1*%
%TO.N,+12V*%
X134620000Y-80010000D03*
D14*
%TO.P,J12,2*%
%TO.N,GND*%
X134620000Y-85010000D03*
%TD*%
%TO.P,J11,4*%
%TO.N,Net-(J11-Pad4)*%
X134670800Y-108014800D03*
%TO.P,J11,3*%
%TO.N,PA15*%
X134670800Y-103014800D03*
%TO.P,J11,2*%
%TO.N,GND*%
X134670800Y-98014800D03*
D15*
%TO.P,J11,1*%
%TO.N,Net-(J11-Pad1)*%
X134670800Y-93014800D03*
%TD*%
D14*
%TO.P,J10,4*%
%TO.N,PA7*%
X134670800Y-130544600D03*
%TO.P,J10,3*%
%TO.N,PB11*%
X134670800Y-125544600D03*
%TO.P,J10,2*%
%TO.N,GND*%
X134670800Y-120544600D03*
D15*
%TO.P,J10,1*%
%TO.N,PA6*%
X134670800Y-115544600D03*
%TD*%
D14*
%TO.P,J8,4*%
%TO.N,GND*%
X193725800Y-94220000D03*
%TO.P,J8,3*%
%TO.N,PB5*%
X193725800Y-99220000D03*
%TO.P,J8,2*%
%TO.N,PB8*%
X193725800Y-104220000D03*
D15*
%TO.P,J8,1*%
%TO.N,+5V*%
X193725800Y-109220000D03*
%TD*%
D14*
%TO.P,J6,2*%
%TO.N,GND*%
X167640000Y-69850000D03*
D15*
%TO.P,J6,1*%
%TO.N,Net-(J6-Pad1)*%
X172640000Y-69850000D03*
%TD*%
D14*
%TO.P,J5,2*%
%TO.N,GND*%
X193725800Y-118698000D03*
D15*
%TO.P,J5,1*%
%TO.N,PB14*%
X193725800Y-123698000D03*
%TD*%
D14*
%TO.P,J4,2*%
%TO.N,GND*%
X193725800Y-132998200D03*
D15*
%TO.P,J4,1*%
%TO.N,PB13*%
X193725800Y-137998200D03*
%TD*%
D14*
%TO.P,J3,2*%
%TO.N,GND*%
X193725800Y-147298400D03*
D15*
%TO.P,J3,1*%
%TO.N,PB12*%
X193725800Y-152298400D03*
%TD*%
%TO.P,J2,1*%
%TO.N,+12V*%
X134620000Y-67310000D03*
D14*
%TO.P,J2,2*%
%TO.N,GND*%
X134620000Y-72310000D03*
%TD*%
D18*
%TO.P,J1,1*%
%TO.N,+3V3*%
X191770000Y-82550000D03*
D19*
%TO.P,J1,2*%
%TO.N,GND*%
X191770000Y-80010000D03*
%TO.P,J1,3*%
%TO.N,TX2*%
X191770000Y-77470000D03*
%TO.P,J1,4*%
%TO.N,RX2*%
X191770000Y-74930000D03*
%TD*%
D20*
%TO.N,*%
X146050000Y-68580000D03*
X182880000Y-152400000D03*
X146050000Y-152400000D03*
X182880000Y-68580000D03*
D21*
%TO.N,Net-(J6-Pad1)*%
X166497000Y-100330000D03*
%TO.N,PB0*%
X142494000Y-136144000D03*
%TD*%
D22*
%TO.N,+3V3*%
X172212000Y-102108000D02*
X191770000Y-82550000D01*
X172212000Y-104114600D02*
X172212000Y-102108000D01*
%TO.N,+5V*%
X172212000Y-109194600D02*
X169418000Y-106400600D01*
X169418000Y-94742000D02*
X184150000Y-80010000D01*
X169418000Y-106400600D02*
X169418000Y-94742000D01*
X184150000Y-80010000D02*
X184150000Y-75946000D01*
X184150000Y-75946000D02*
X189484000Y-70612000D01*
X189484000Y-70612000D02*
X195834000Y-70612000D01*
X195834000Y-70612000D02*
X199136000Y-73914000D01*
X199136000Y-103809800D02*
X193725800Y-109220000D01*
X199136000Y-73914000D02*
X199136000Y-103809800D01*
%TO.N,GND*%
X174650400Y-106654600D02*
X184150000Y-97155000D01*
X172212000Y-106654600D02*
X174650400Y-106654600D01*
D23*
%TO.N,PB12*%
X173224000Y-152374600D02*
X177262600Y-148336000D01*
X172212000Y-152374600D02*
X173224000Y-152374600D01*
X189763400Y-148336000D02*
X193725800Y-152298400D01*
X177262600Y-148336000D02*
X189763400Y-148336000D01*
%TO.N,PB13*%
X184048400Y-137998200D02*
X193725800Y-137998200D01*
X172212000Y-149834600D02*
X184048400Y-137998200D01*
%TO.N,PB14*%
X193725800Y-125780800D02*
X193725800Y-123698000D01*
X172212000Y-147294600D02*
X193725800Y-125780800D01*
%TO.N,Net-(J6-Pad1)*%
X166497000Y-100330000D02*
X165481000Y-99314000D01*
X165481000Y-77009000D02*
X172640000Y-69850000D01*
X165481000Y-99314000D02*
X165481000Y-77009000D01*
%TO.N,PB5*%
X172212000Y-121894600D02*
X177800000Y-116306600D01*
X177800000Y-115145800D02*
X193725800Y-99220000D01*
X177800000Y-116306600D02*
X177800000Y-115145800D01*
%TO.N,PB8*%
X172212000Y-114274600D02*
X174777400Y-114274600D01*
X174777400Y-114274600D02*
X192278000Y-96774000D01*
X192278000Y-96774000D02*
X195580000Y-96774000D01*
X195580000Y-96774000D02*
X196850000Y-98044000D01*
X196850000Y-101095800D02*
X193725800Y-104220000D01*
X196850000Y-98044000D02*
X196850000Y-101095800D01*
%TO.N,PB0*%
X142494000Y-136144000D02*
X144018000Y-134620000D01*
X156946600Y-134620000D02*
X156972000Y-134594600D01*
X144018000Y-134620000D02*
X156946600Y-134620000D01*
%TO.N,PB10*%
X134670800Y-148074400D02*
X143045200Y-139700000D01*
X156946600Y-139700000D02*
X156972000Y-139674600D01*
X143045200Y-139700000D02*
X156946600Y-139700000D01*
%TO.N,PB1*%
X156032200Y-138074400D02*
X156972000Y-137134600D01*
X134670800Y-138074400D02*
X156032200Y-138074400D01*
%TO.N,PA7*%
X155462000Y-130544600D02*
X156972000Y-132054600D01*
X134670800Y-130544600D02*
X155462000Y-130544600D01*
%TO.N,PA6*%
X143002000Y-115544600D02*
X156972000Y-129514600D01*
X134670800Y-115544600D02*
X143002000Y-115544600D01*
%TO.N,PA15*%
X172212000Y-129514600D02*
X168122600Y-129514600D01*
X168122600Y-129514600D02*
X160274000Y-121666000D01*
X160274000Y-121666000D02*
X160274000Y-102870000D01*
X160274000Y-102870000D02*
X157988000Y-100584000D01*
X137101600Y-100584000D02*
X134670800Y-103014800D01*
X157988000Y-100584000D02*
X137101600Y-100584000D01*
%TO.N,B_LED*%
X180340000Y-134086600D02*
X180340000Y-115417600D01*
X172212000Y-142214600D02*
X180340000Y-134086600D01*
%TO.N,Y_LED*%
X149123400Y-116586000D02*
X149123400Y-115417600D01*
X156972000Y-124434600D02*
X149123400Y-116586000D01*
%TD*%
D24*
%TO.N,+12V*%
X151003000Y-86233000D02*
X136721745Y-86233000D01*
X136770779Y-86159615D01*
X136953732Y-85717930D01*
X137047000Y-85249039D01*
X137047000Y-84770961D01*
X136953732Y-84302070D01*
X136770779Y-83860385D01*
X136505174Y-83462878D01*
X136167122Y-83124826D01*
X135769615Y-82859221D01*
X135327930Y-82676268D01*
X134859039Y-82583000D01*
X134380961Y-82583000D01*
X133912070Y-82676268D01*
X133470385Y-82859221D01*
X133072878Y-83124826D01*
X132734826Y-83462878D01*
X132469221Y-83860385D01*
X132286268Y-84302070D01*
X132193000Y-84770961D01*
X132193000Y-85249039D01*
X132286268Y-85717930D01*
X132469221Y-86159615D01*
X132518255Y-86233000D01*
X128152000Y-86233000D01*
X128152000Y-81310000D01*
X132681928Y-81310000D01*
X132694188Y-81434482D01*
X132730498Y-81554180D01*
X132789463Y-81664494D01*
X132868815Y-81761185D01*
X132965506Y-81840537D01*
X133075820Y-81899502D01*
X133195518Y-81935812D01*
X133320000Y-81948072D01*
X134334250Y-81945000D01*
X134493000Y-81786250D01*
X134493000Y-80137000D01*
X134747000Y-80137000D01*
X134747000Y-81786250D01*
X134905750Y-81945000D01*
X135920000Y-81948072D01*
X136044482Y-81935812D01*
X136164180Y-81899502D01*
X136274494Y-81840537D01*
X136371185Y-81761185D01*
X136450537Y-81664494D01*
X136509502Y-81554180D01*
X136545812Y-81434482D01*
X136558072Y-81310000D01*
X136557164Y-81010000D01*
X143141928Y-81010000D01*
X143154188Y-81134482D01*
X143190498Y-81254180D01*
X143249463Y-81364494D01*
X143328815Y-81461185D01*
X143425506Y-81540537D01*
X143535820Y-81599502D01*
X143655518Y-81635812D01*
X143780000Y-81648072D01*
X144494250Y-81645000D01*
X144653000Y-81486250D01*
X144653000Y-80137000D01*
X144907000Y-80137000D01*
X144907000Y-81486250D01*
X145065750Y-81645000D01*
X145780000Y-81648072D01*
X145904482Y-81635812D01*
X146024180Y-81599502D01*
X146134494Y-81540537D01*
X146231185Y-81461185D01*
X146310537Y-81364494D01*
X146369502Y-81254180D01*
X146405812Y-81134482D01*
X146418072Y-81010000D01*
X146415000Y-80295750D01*
X146256250Y-80137000D01*
X144907000Y-80137000D01*
X144653000Y-80137000D01*
X143303750Y-80137000D01*
X143145000Y-80295750D01*
X143141928Y-81010000D01*
X136557164Y-81010000D01*
X136555000Y-80295750D01*
X136396250Y-80137000D01*
X134747000Y-80137000D01*
X134493000Y-80137000D01*
X132843750Y-80137000D01*
X132685000Y-80295750D01*
X132681928Y-81310000D01*
X128152000Y-81310000D01*
X128152000Y-78710000D01*
X132681928Y-78710000D01*
X132685000Y-79724250D01*
X132843750Y-79883000D01*
X134493000Y-79883000D01*
X134493000Y-78233750D01*
X134747000Y-78233750D01*
X134747000Y-79883000D01*
X136396250Y-79883000D01*
X136555000Y-79724250D01*
X136557163Y-79010000D01*
X143141928Y-79010000D01*
X143145000Y-79724250D01*
X143303750Y-79883000D01*
X144653000Y-79883000D01*
X144653000Y-78533750D01*
X144907000Y-78533750D01*
X144907000Y-79883000D01*
X146256250Y-79883000D01*
X146415000Y-79724250D01*
X146418072Y-79010000D01*
X146405812Y-78885518D01*
X146369502Y-78765820D01*
X146310537Y-78655506D01*
X146231185Y-78558815D01*
X146134494Y-78479463D01*
X146024180Y-78420498D01*
X145904482Y-78384188D01*
X145780000Y-78371928D01*
X145065750Y-78375000D01*
X144907000Y-78533750D01*
X144653000Y-78533750D01*
X144494250Y-78375000D01*
X143780000Y-78371928D01*
X143655518Y-78384188D01*
X143535820Y-78420498D01*
X143425506Y-78479463D01*
X143328815Y-78558815D01*
X143249463Y-78655506D01*
X143190498Y-78765820D01*
X143154188Y-78885518D01*
X143141928Y-79010000D01*
X136557163Y-79010000D01*
X136558072Y-78710000D01*
X136545812Y-78585518D01*
X136509502Y-78465820D01*
X136450537Y-78355506D01*
X136371185Y-78258815D01*
X136274494Y-78179463D01*
X136164180Y-78120498D01*
X136044482Y-78084188D01*
X135920000Y-78071928D01*
X134905750Y-78075000D01*
X134747000Y-78233750D01*
X134493000Y-78233750D01*
X134334250Y-78075000D01*
X133320000Y-78071928D01*
X133195518Y-78084188D01*
X133075820Y-78120498D01*
X132965506Y-78179463D01*
X132868815Y-78258815D01*
X132789463Y-78355506D01*
X132730498Y-78465820D01*
X132694188Y-78585518D01*
X132681928Y-78710000D01*
X128152000Y-78710000D01*
X128152000Y-72070961D01*
X132193000Y-72070961D01*
X132193000Y-72549039D01*
X132286268Y-73017930D01*
X132469221Y-73459615D01*
X132734826Y-73857122D01*
X133072878Y-74195174D01*
X133470385Y-74460779D01*
X133912070Y-74643732D01*
X134380961Y-74737000D01*
X134859039Y-74737000D01*
X135327930Y-74643732D01*
X135769615Y-74460779D01*
X136167122Y-74195174D01*
X136505174Y-73857122D01*
X136770779Y-73459615D01*
X136953732Y-73017930D01*
X137047000Y-72549039D01*
X137047000Y-72070961D01*
X136953732Y-71602070D01*
X136770779Y-71160385D01*
X136505174Y-70762878D01*
X136167122Y-70424826D01*
X135769615Y-70159221D01*
X135327930Y-69976268D01*
X134859039Y-69883000D01*
X134380961Y-69883000D01*
X133912070Y-69976268D01*
X133470385Y-70159221D01*
X133072878Y-70424826D01*
X132734826Y-70762878D01*
X132469221Y-71160385D01*
X132286268Y-71602070D01*
X132193000Y-72070961D01*
X128152000Y-72070961D01*
X128152000Y-68610000D01*
X132681928Y-68610000D01*
X132694188Y-68734482D01*
X132730498Y-68854180D01*
X132789463Y-68964494D01*
X132868815Y-69061185D01*
X132965506Y-69140537D01*
X133075820Y-69199502D01*
X133195518Y-69235812D01*
X133320000Y-69248072D01*
X134334250Y-69245000D01*
X134493000Y-69086250D01*
X134493000Y-67437000D01*
X134747000Y-67437000D01*
X134747000Y-69086250D01*
X134905750Y-69245000D01*
X135920000Y-69248072D01*
X136044482Y-69235812D01*
X136164180Y-69199502D01*
X136274494Y-69140537D01*
X136371185Y-69061185D01*
X136450537Y-68964494D01*
X136509502Y-68854180D01*
X136545812Y-68734482D01*
X136558072Y-68610000D01*
X136556900Y-68222772D01*
X142423000Y-68222772D01*
X142423000Y-68937228D01*
X142562383Y-69637957D01*
X142835794Y-70298029D01*
X143232725Y-70892078D01*
X143737922Y-71397275D01*
X144331971Y-71794206D01*
X144992043Y-72067617D01*
X145692772Y-72207000D01*
X146407228Y-72207000D01*
X147107957Y-72067617D01*
X147768029Y-71794206D01*
X148362078Y-71397275D01*
X148867275Y-70892078D01*
X149264206Y-70298029D01*
X149537617Y-69637957D01*
X149677000Y-68937228D01*
X149677000Y-68222772D01*
X149537617Y-67522043D01*
X149264206Y-66861971D01*
X148867275Y-66267922D01*
X148362078Y-65762725D01*
X147768029Y-65365794D01*
X147107957Y-65092383D01*
X146407228Y-64953000D01*
X145692772Y-64953000D01*
X144992043Y-65092383D01*
X144331971Y-65365794D01*
X143737922Y-65762725D01*
X143232725Y-66267922D01*
X142835794Y-66861971D01*
X142562383Y-67522043D01*
X142423000Y-68222772D01*
X136556900Y-68222772D01*
X136555000Y-67595750D01*
X136396250Y-67437000D01*
X134747000Y-67437000D01*
X134493000Y-67437000D01*
X132843750Y-67437000D01*
X132685000Y-67595750D01*
X132681928Y-68610000D01*
X128152000Y-68610000D01*
X128152000Y-66096343D01*
X128160466Y-66010000D01*
X132681928Y-66010000D01*
X132685000Y-67024250D01*
X132843750Y-67183000D01*
X134493000Y-67183000D01*
X134493000Y-65533750D01*
X134747000Y-65533750D01*
X134747000Y-67183000D01*
X136396250Y-67183000D01*
X136555000Y-67024250D01*
X136558072Y-66010000D01*
X136545812Y-65885518D01*
X136509502Y-65765820D01*
X136450537Y-65655506D01*
X136371185Y-65558815D01*
X136274494Y-65479463D01*
X136164180Y-65420498D01*
X136044482Y-65384188D01*
X135920000Y-65371928D01*
X134905750Y-65375000D01*
X134747000Y-65533750D01*
X134493000Y-65533750D01*
X134334250Y-65375000D01*
X133320000Y-65371928D01*
X133195518Y-65384188D01*
X133075820Y-65420498D01*
X132965506Y-65479463D01*
X132868815Y-65558815D01*
X132789463Y-65655506D01*
X132730498Y-65765820D01*
X132694188Y-65885518D01*
X132681928Y-66010000D01*
X128160466Y-66010000D01*
X128208041Y-65524798D01*
X128357665Y-65029219D01*
X128600696Y-64572143D01*
X128927882Y-64170974D01*
X129326756Y-63840997D01*
X129782122Y-63594781D01*
X130276649Y-63441700D01*
X130844656Y-63382000D01*
X151003000Y-63382000D01*
X151003000Y-86233000D01*
%TA.AperFunction,Conductor*%
D25*
G36*
X151003000Y-86233000D02*
G01*
X136721745Y-86233000D01*
X136770779Y-86159615D01*
X136953732Y-85717930D01*
X137047000Y-85249039D01*
X137047000Y-84770961D01*
X136953732Y-84302070D01*
X136770779Y-83860385D01*
X136505174Y-83462878D01*
X136167122Y-83124826D01*
X135769615Y-82859221D01*
X135327930Y-82676268D01*
X134859039Y-82583000D01*
X134380961Y-82583000D01*
X133912070Y-82676268D01*
X133470385Y-82859221D01*
X133072878Y-83124826D01*
X132734826Y-83462878D01*
X132469221Y-83860385D01*
X132286268Y-84302070D01*
X132193000Y-84770961D01*
X132193000Y-85249039D01*
X132286268Y-85717930D01*
X132469221Y-86159615D01*
X132518255Y-86233000D01*
X128152000Y-86233000D01*
X128152000Y-81310000D01*
X132681928Y-81310000D01*
X132694188Y-81434482D01*
X132730498Y-81554180D01*
X132789463Y-81664494D01*
X132868815Y-81761185D01*
X132965506Y-81840537D01*
X133075820Y-81899502D01*
X133195518Y-81935812D01*
X133320000Y-81948072D01*
X134334250Y-81945000D01*
X134493000Y-81786250D01*
X134493000Y-80137000D01*
X134747000Y-80137000D01*
X134747000Y-81786250D01*
X134905750Y-81945000D01*
X135920000Y-81948072D01*
X136044482Y-81935812D01*
X136164180Y-81899502D01*
X136274494Y-81840537D01*
X136371185Y-81761185D01*
X136450537Y-81664494D01*
X136509502Y-81554180D01*
X136545812Y-81434482D01*
X136558072Y-81310000D01*
X136557164Y-81010000D01*
X143141928Y-81010000D01*
X143154188Y-81134482D01*
X143190498Y-81254180D01*
X143249463Y-81364494D01*
X143328815Y-81461185D01*
X143425506Y-81540537D01*
X143535820Y-81599502D01*
X143655518Y-81635812D01*
X143780000Y-81648072D01*
X144494250Y-81645000D01*
X144653000Y-81486250D01*
X144653000Y-80137000D01*
X144907000Y-80137000D01*
X144907000Y-81486250D01*
X145065750Y-81645000D01*
X145780000Y-81648072D01*
X145904482Y-81635812D01*
X146024180Y-81599502D01*
X146134494Y-81540537D01*
X146231185Y-81461185D01*
X146310537Y-81364494D01*
X146369502Y-81254180D01*
X146405812Y-81134482D01*
X146418072Y-81010000D01*
X146415000Y-80295750D01*
X146256250Y-80137000D01*
X144907000Y-80137000D01*
X144653000Y-80137000D01*
X143303750Y-80137000D01*
X143145000Y-80295750D01*
X143141928Y-81010000D01*
X136557164Y-81010000D01*
X136555000Y-80295750D01*
X136396250Y-80137000D01*
X134747000Y-80137000D01*
X134493000Y-80137000D01*
X132843750Y-80137000D01*
X132685000Y-80295750D01*
X132681928Y-81310000D01*
X128152000Y-81310000D01*
X128152000Y-78710000D01*
X132681928Y-78710000D01*
X132685000Y-79724250D01*
X132843750Y-79883000D01*
X134493000Y-79883000D01*
X134493000Y-78233750D01*
X134747000Y-78233750D01*
X134747000Y-79883000D01*
X136396250Y-79883000D01*
X136555000Y-79724250D01*
X136557163Y-79010000D01*
X143141928Y-79010000D01*
X143145000Y-79724250D01*
X143303750Y-79883000D01*
X144653000Y-79883000D01*
X144653000Y-78533750D01*
X144907000Y-78533750D01*
X144907000Y-79883000D01*
X146256250Y-79883000D01*
X146415000Y-79724250D01*
X146418072Y-79010000D01*
X146405812Y-78885518D01*
X146369502Y-78765820D01*
X146310537Y-78655506D01*
X146231185Y-78558815D01*
X146134494Y-78479463D01*
X146024180Y-78420498D01*
X145904482Y-78384188D01*
X145780000Y-78371928D01*
X145065750Y-78375000D01*
X144907000Y-78533750D01*
X144653000Y-78533750D01*
X144494250Y-78375000D01*
X143780000Y-78371928D01*
X143655518Y-78384188D01*
X143535820Y-78420498D01*
X143425506Y-78479463D01*
X143328815Y-78558815D01*
X143249463Y-78655506D01*
X143190498Y-78765820D01*
X143154188Y-78885518D01*
X143141928Y-79010000D01*
X136557163Y-79010000D01*
X136558072Y-78710000D01*
X136545812Y-78585518D01*
X136509502Y-78465820D01*
X136450537Y-78355506D01*
X136371185Y-78258815D01*
X136274494Y-78179463D01*
X136164180Y-78120498D01*
X136044482Y-78084188D01*
X135920000Y-78071928D01*
X134905750Y-78075000D01*
X134747000Y-78233750D01*
X134493000Y-78233750D01*
X134334250Y-78075000D01*
X133320000Y-78071928D01*
X133195518Y-78084188D01*
X133075820Y-78120498D01*
X132965506Y-78179463D01*
X132868815Y-78258815D01*
X132789463Y-78355506D01*
X132730498Y-78465820D01*
X132694188Y-78585518D01*
X132681928Y-78710000D01*
X128152000Y-78710000D01*
X128152000Y-72070961D01*
X132193000Y-72070961D01*
X132193000Y-72549039D01*
X132286268Y-73017930D01*
X132469221Y-73459615D01*
X132734826Y-73857122D01*
X133072878Y-74195174D01*
X133470385Y-74460779D01*
X133912070Y-74643732D01*
X134380961Y-74737000D01*
X134859039Y-74737000D01*
X135327930Y-74643732D01*
X135769615Y-74460779D01*
X136167122Y-74195174D01*
X136505174Y-73857122D01*
X136770779Y-73459615D01*
X136953732Y-73017930D01*
X137047000Y-72549039D01*
X137047000Y-72070961D01*
X136953732Y-71602070D01*
X136770779Y-71160385D01*
X136505174Y-70762878D01*
X136167122Y-70424826D01*
X135769615Y-70159221D01*
X135327930Y-69976268D01*
X134859039Y-69883000D01*
X134380961Y-69883000D01*
X133912070Y-69976268D01*
X133470385Y-70159221D01*
X133072878Y-70424826D01*
X132734826Y-70762878D01*
X132469221Y-71160385D01*
X132286268Y-71602070D01*
X132193000Y-72070961D01*
X128152000Y-72070961D01*
X128152000Y-68610000D01*
X132681928Y-68610000D01*
X132694188Y-68734482D01*
X132730498Y-68854180D01*
X132789463Y-68964494D01*
X132868815Y-69061185D01*
X132965506Y-69140537D01*
X133075820Y-69199502D01*
X133195518Y-69235812D01*
X133320000Y-69248072D01*
X134334250Y-69245000D01*
X134493000Y-69086250D01*
X134493000Y-67437000D01*
X134747000Y-67437000D01*
X134747000Y-69086250D01*
X134905750Y-69245000D01*
X135920000Y-69248072D01*
X136044482Y-69235812D01*
X136164180Y-69199502D01*
X136274494Y-69140537D01*
X136371185Y-69061185D01*
X136450537Y-68964494D01*
X136509502Y-68854180D01*
X136545812Y-68734482D01*
X136558072Y-68610000D01*
X136556900Y-68222772D01*
X142423000Y-68222772D01*
X142423000Y-68937228D01*
X142562383Y-69637957D01*
X142835794Y-70298029D01*
X143232725Y-70892078D01*
X143737922Y-71397275D01*
X144331971Y-71794206D01*
X144992043Y-72067617D01*
X145692772Y-72207000D01*
X146407228Y-72207000D01*
X147107957Y-72067617D01*
X147768029Y-71794206D01*
X148362078Y-71397275D01*
X148867275Y-70892078D01*
X149264206Y-70298029D01*
X149537617Y-69637957D01*
X149677000Y-68937228D01*
X149677000Y-68222772D01*
X149537617Y-67522043D01*
X149264206Y-66861971D01*
X148867275Y-66267922D01*
X148362078Y-65762725D01*
X147768029Y-65365794D01*
X147107957Y-65092383D01*
X146407228Y-64953000D01*
X145692772Y-64953000D01*
X144992043Y-65092383D01*
X144331971Y-65365794D01*
X143737922Y-65762725D01*
X143232725Y-66267922D01*
X142835794Y-66861971D01*
X142562383Y-67522043D01*
X142423000Y-68222772D01*
X136556900Y-68222772D01*
X136555000Y-67595750D01*
X136396250Y-67437000D01*
X134747000Y-67437000D01*
X134493000Y-67437000D01*
X132843750Y-67437000D01*
X132685000Y-67595750D01*
X132681928Y-68610000D01*
X128152000Y-68610000D01*
X128152000Y-66096343D01*
X128160466Y-66010000D01*
X132681928Y-66010000D01*
X132685000Y-67024250D01*
X132843750Y-67183000D01*
X134493000Y-67183000D01*
X134493000Y-65533750D01*
X134747000Y-65533750D01*
X134747000Y-67183000D01*
X136396250Y-67183000D01*
X136555000Y-67024250D01*
X136558072Y-66010000D01*
X136545812Y-65885518D01*
X136509502Y-65765820D01*
X136450537Y-65655506D01*
X136371185Y-65558815D01*
X136274494Y-65479463D01*
X136164180Y-65420498D01*
X136044482Y-65384188D01*
X135920000Y-65371928D01*
X134905750Y-65375000D01*
X134747000Y-65533750D01*
X134493000Y-65533750D01*
X134334250Y-65375000D01*
X133320000Y-65371928D01*
X133195518Y-65384188D01*
X133075820Y-65420498D01*
X132965506Y-65479463D01*
X132868815Y-65558815D01*
X132789463Y-65655506D01*
X132730498Y-65765820D01*
X132694188Y-65885518D01*
X132681928Y-66010000D01*
X128160466Y-66010000D01*
X128208041Y-65524798D01*
X128357665Y-65029219D01*
X128600696Y-64572143D01*
X128927882Y-64170974D01*
X129326756Y-63840997D01*
X129782122Y-63594781D01*
X130276649Y-63441700D01*
X130844656Y-63382000D01*
X151003000Y-63382000D01*
X151003000Y-86233000D01*
G37*
%TD.AperFunction*%
%TD*%
D24*
%TO.N,GND*%
X198635202Y-63438041D02*
X199130781Y-63587665D01*
X199587857Y-63830696D01*
X199989026Y-64157882D01*
X200319003Y-64556756D01*
X200565219Y-65012122D01*
X200718300Y-65506649D01*
X200778000Y-66074656D01*
X200778001Y-154883647D01*
X200721960Y-155455201D01*
X200572335Y-155950780D01*
X200329304Y-156407857D01*
X200002118Y-156809027D01*
X199603249Y-157139000D01*
X199147877Y-157385219D01*
X198653352Y-157538300D01*
X198085344Y-157598000D01*
X130866343Y-157598000D01*
X130294799Y-157541960D01*
X129799220Y-157392335D01*
X129342143Y-157149304D01*
X128940973Y-156822118D01*
X128611000Y-156423249D01*
X128364781Y-155967877D01*
X128211700Y-155473352D01*
X128152000Y-154905344D01*
X128152000Y-152835361D01*
X132243800Y-152835361D01*
X132243800Y-153313439D01*
X132337068Y-153782330D01*
X132520021Y-154224015D01*
X132785626Y-154621522D01*
X133123678Y-154959574D01*
X133521185Y-155225179D01*
X133962870Y-155408132D01*
X134431761Y-155501400D01*
X134909839Y-155501400D01*
X135378730Y-155408132D01*
X135820415Y-155225179D01*
X136217922Y-154959574D01*
X136555974Y-154621522D01*
X136821579Y-154224015D01*
X137004532Y-153782330D01*
X137097800Y-153313439D01*
X137097800Y-152835361D01*
X137004532Y-152366470D01*
X136870452Y-152042772D01*
X142423000Y-152042772D01*
X142423000Y-152757228D01*
X142562383Y-153457957D01*
X142835794Y-154118029D01*
X143232725Y-154712078D01*
X143737922Y-155217275D01*
X144331971Y-155614206D01*
X144992043Y-155887617D01*
X145692772Y-156027000D01*
X146407228Y-156027000D01*
X147107957Y-155887617D01*
X147768029Y-155614206D01*
X148362078Y-155217275D01*
X148867275Y-154712078D01*
X149264206Y-154118029D01*
X149537617Y-153457957D01*
X149561047Y-153340165D01*
X156186040Y-153340165D01*
X156253020Y-153580256D01*
X156502048Y-153697356D01*
X156769135Y-153763623D01*
X157044017Y-153776510D01*
X157316133Y-153735522D01*
X157575023Y-153642236D01*
X157690980Y-153580256D01*
X157757960Y-153340165D01*
X156972000Y-152554205D01*
X156186040Y-153340165D01*
X149561047Y-153340165D01*
X149677000Y-152757228D01*
X149677000Y-152446617D01*
X155570090Y-152446617D01*
X155611078Y-152718733D01*
X155704364Y-152977623D01*
X155766344Y-153093580D01*
X156006435Y-153160560D01*
X156792395Y-152374600D01*
X157151605Y-152374600D01*
X157937565Y-153160560D01*
X158177656Y-153093580D01*
X158294756Y-152844552D01*
X158361023Y-152577465D01*
X158373910Y-152302583D01*
X158332922Y-152030467D01*
X158239636Y-151771577D01*
X158177656Y-151655620D01*
X157937565Y-151588640D01*
X157151605Y-152374600D01*
X156792395Y-152374600D01*
X156006435Y-151588640D01*
X155766344Y-151655620D01*
X155649244Y-151904648D01*
X155582977Y-152171735D01*
X155570090Y-152446617D01*
X149677000Y-152446617D01*
X149677000Y-152042772D01*
X149537617Y-151342043D01*
X149313164Y-150800165D01*
X156186040Y-150800165D01*
X156253020Y-151040256D01*
X156383644Y-151101679D01*
X156368977Y-151106964D01*
X156253020Y-151168944D01*
X156186040Y-151409035D01*
X156972000Y-152194995D01*
X157757960Y-151409035D01*
X157690980Y-151168944D01*
X157560356Y-151107521D01*
X157575023Y-151102236D01*
X157690980Y-151040256D01*
X157757960Y-150800165D01*
X156972000Y-150014205D01*
X156186040Y-150800165D01*
X149313164Y-150800165D01*
X149264206Y-150681971D01*
X148867275Y-150087922D01*
X148362078Y-149582725D01*
X147768029Y-149185794D01*
X147107957Y-148912383D01*
X146407228Y-148773000D01*
X145692772Y-148773000D01*
X144992043Y-148912383D01*
X144331971Y-149185794D01*
X143737922Y-149582725D01*
X143232725Y-150087922D01*
X142835794Y-150681971D01*
X142562383Y-151342043D01*
X142423000Y-152042772D01*
X136870452Y-152042772D01*
X136821579Y-151924785D01*
X136555974Y-151527278D01*
X136217922Y-151189226D01*
X135820415Y-150923621D01*
X135378730Y-150740668D01*
X134909839Y-150647400D01*
X134431761Y-150647400D01*
X133962870Y-150740668D01*
X133521185Y-150923621D01*
X133123678Y-151189226D01*
X132785626Y-151527278D01*
X132520021Y-151924785D01*
X132337068Y-152366470D01*
X132243800Y-152835361D01*
X128152000Y-152835361D01*
X128152000Y-144423624D01*
X133501181Y-144423624D01*
X133633117Y-144718712D01*
X133973845Y-144889559D01*
X134341357Y-144990650D01*
X134721529Y-145018101D01*
X135099751Y-144970857D01*
X135461490Y-144850733D01*
X135708483Y-144718712D01*
X135840419Y-144423624D01*
X134670800Y-143254005D01*
X133501181Y-144423624D01*
X128152000Y-144423624D01*
X128152000Y-143125129D01*
X132727099Y-143125129D01*
X132774343Y-143503351D01*
X132894467Y-143865090D01*
X133026488Y-144112083D01*
X133321576Y-144244019D01*
X134491195Y-143074400D01*
X134850405Y-143074400D01*
X136020024Y-144244019D01*
X136315112Y-144112083D01*
X136485959Y-143771355D01*
X136587050Y-143403843D01*
X136614501Y-143023671D01*
X136567257Y-142645449D01*
X136447133Y-142283710D01*
X136315112Y-142036717D01*
X136020024Y-141904781D01*
X134850405Y-143074400D01*
X134491195Y-143074400D01*
X133321576Y-141904781D01*
X133026488Y-142036717D01*
X132855641Y-142377445D01*
X132754550Y-142744957D01*
X132727099Y-143125129D01*
X128152000Y-143125129D01*
X128152000Y-141725176D01*
X133501181Y-141725176D01*
X134670800Y-142894795D01*
X135840419Y-141725176D01*
X135708483Y-141430088D01*
X135367755Y-141259241D01*
X135000243Y-141158150D01*
X134620071Y-141130699D01*
X134241849Y-141177943D01*
X133880110Y-141298067D01*
X133633117Y-141430088D01*
X133501181Y-141725176D01*
X128152000Y-141725176D01*
X128152000Y-125305561D01*
X132243800Y-125305561D01*
X132243800Y-125783639D01*
X132337068Y-126252530D01*
X132520021Y-126694215D01*
X132785626Y-127091722D01*
X133123678Y-127429774D01*
X133521185Y-127695379D01*
X133962870Y-127878332D01*
X134431761Y-127971600D01*
X134909839Y-127971600D01*
X135378730Y-127878332D01*
X135820415Y-127695379D01*
X136217922Y-127429774D01*
X136555974Y-127091722D01*
X136821579Y-126694215D01*
X137004532Y-126252530D01*
X137097800Y-125783639D01*
X137097800Y-125305561D01*
X137004532Y-124836670D01*
X136821579Y-124394985D01*
X136555974Y-123997478D01*
X136217922Y-123659426D01*
X135820415Y-123393821D01*
X135378730Y-123210868D01*
X134909839Y-123117600D01*
X134431761Y-123117600D01*
X133962870Y-123210868D01*
X133521185Y-123393821D01*
X133123678Y-123659426D01*
X132785626Y-123997478D01*
X132520021Y-124394985D01*
X132337068Y-124836670D01*
X132243800Y-125305561D01*
X128152000Y-125305561D01*
X128152000Y-121893824D01*
X133501181Y-121893824D01*
X133633117Y-122188912D01*
X133973845Y-122359759D01*
X134341357Y-122460850D01*
X134721529Y-122488301D01*
X135099751Y-122441057D01*
X135461490Y-122320933D01*
X135708483Y-122188912D01*
X135840419Y-121893824D01*
X134670800Y-120724205D01*
X133501181Y-121893824D01*
X128152000Y-121893824D01*
X128152000Y-120595329D01*
X132727099Y-120595329D01*
X132774343Y-120973551D01*
X132894467Y-121335290D01*
X133026488Y-121582283D01*
X133321576Y-121714219D01*
X134491195Y-120544600D01*
X134850405Y-120544600D01*
X136020024Y-121714219D01*
X136315112Y-121582283D01*
X136485959Y-121241555D01*
X136587050Y-120874043D01*
X136614501Y-120493871D01*
X136567257Y-120115649D01*
X136447133Y-119753910D01*
X136315112Y-119506917D01*
X136020024Y-119374981D01*
X134850405Y-120544600D01*
X134491195Y-120544600D01*
X133321576Y-119374981D01*
X133026488Y-119506917D01*
X132855641Y-119847645D01*
X132754550Y-120215157D01*
X132727099Y-120595329D01*
X128152000Y-120595329D01*
X128152000Y-119195376D01*
X133501181Y-119195376D01*
X134670800Y-120364995D01*
X135840419Y-119195376D01*
X135708483Y-118900288D01*
X135367755Y-118729441D01*
X135000243Y-118628350D01*
X134620071Y-118600899D01*
X134241849Y-118648143D01*
X133880110Y-118768267D01*
X133633117Y-118900288D01*
X133501181Y-119195376D01*
X128152000Y-119195376D01*
X128152000Y-114244600D01*
X132238347Y-114244600D01*
X132238347Y-116844600D01*
X132260107Y-117065531D01*
X132324550Y-117277971D01*
X132429200Y-117473757D01*
X132570035Y-117645365D01*
X132741643Y-117786200D01*
X132937429Y-117890850D01*
X133149869Y-117955293D01*
X133370800Y-117977053D01*
X135970800Y-117977053D01*
X136191731Y-117955293D01*
X136404171Y-117890850D01*
X136599957Y-117786200D01*
X136771565Y-117645365D01*
X136912400Y-117473757D01*
X137017050Y-117277971D01*
X137081493Y-117065531D01*
X137103253Y-116844600D01*
X137103253Y-116796600D01*
X142483405Y-116796600D01*
X154979404Y-129292600D01*
X136753168Y-129292600D01*
X136555974Y-128997478D01*
X136217922Y-128659426D01*
X135820415Y-128393821D01*
X135378730Y-128210868D01*
X134909839Y-128117600D01*
X134431761Y-128117600D01*
X133962870Y-128210868D01*
X133521185Y-128393821D01*
X133123678Y-128659426D01*
X132785626Y-128997478D01*
X132520021Y-129394985D01*
X132337068Y-129836670D01*
X132243800Y-130305561D01*
X132243800Y-130783639D01*
X132337068Y-131252530D01*
X132520021Y-131694215D01*
X132785626Y-132091722D01*
X133123678Y-132429774D01*
X133521185Y-132695379D01*
X133962870Y-132878332D01*
X134431761Y-132971600D01*
X134909839Y-132971600D01*
X135378730Y-132878332D01*
X135820415Y-132695379D01*
X136217922Y-132429774D01*
X136555974Y-132091722D01*
X136753168Y-131796600D01*
X154943405Y-131796600D01*
X155083000Y-131936195D01*
X155083000Y-132240650D01*
X155155593Y-132605601D01*
X155297990Y-132949377D01*
X155504718Y-133258767D01*
X155570551Y-133324600D01*
X155527151Y-133368000D01*
X144079495Y-133368000D01*
X144017999Y-133361943D01*
X143956503Y-133368000D01*
X143956502Y-133368000D01*
X143772565Y-133386116D01*
X143536562Y-133457707D01*
X143319060Y-133573964D01*
X143207137Y-133665817D01*
X143128419Y-133730419D01*
X143089217Y-133778187D01*
X142227263Y-134640141D01*
X142048590Y-134675681D01*
X141770694Y-134790790D01*
X141520594Y-134957901D01*
X141307901Y-135170594D01*
X141140790Y-135420694D01*
X141025681Y-135698590D01*
X140967000Y-135993604D01*
X140967000Y-136294396D01*
X141025681Y-136589410D01*
X141122189Y-136822400D01*
X137103253Y-136822400D01*
X137103253Y-136774400D01*
X137081493Y-136553469D01*
X137017050Y-136341029D01*
X136912400Y-136145243D01*
X136771565Y-135973635D01*
X136599957Y-135832800D01*
X136404171Y-135728150D01*
X136191731Y-135663707D01*
X135970800Y-135641947D01*
X133370800Y-135641947D01*
X133149869Y-135663707D01*
X132937429Y-135728150D01*
X132741643Y-135832800D01*
X132570035Y-135973635D01*
X132429200Y-136145243D01*
X132324550Y-136341029D01*
X132260107Y-136553469D01*
X132238347Y-136774400D01*
X132238347Y-139374400D01*
X132260107Y-139595331D01*
X132324550Y-139807771D01*
X132429200Y-140003557D01*
X132570035Y-140175165D01*
X132741643Y-140316000D01*
X132937429Y-140420650D01*
X133149869Y-140485093D01*
X133370800Y-140506853D01*
X135970800Y-140506853D01*
X136191731Y-140485093D01*
X136404171Y-140420650D01*
X136599957Y-140316000D01*
X136771565Y-140175165D01*
X136912400Y-140003557D01*
X137017050Y-139807771D01*
X137081493Y-139595331D01*
X137103253Y-139374400D01*
X137103253Y-139326400D01*
X141648204Y-139326400D01*
X135257960Y-145716645D01*
X134909839Y-145647400D01*
X134431761Y-145647400D01*
X133962870Y-145740668D01*
X133521185Y-145923621D01*
X133123678Y-146189226D01*
X132785626Y-146527278D01*
X132520021Y-146924785D01*
X132337068Y-147366470D01*
X132243800Y-147835361D01*
X132243800Y-148313439D01*
X132337068Y-148782330D01*
X132520021Y-149224015D01*
X132785626Y-149621522D01*
X133123678Y-149959574D01*
X133521185Y-150225179D01*
X133962870Y-150408132D01*
X134431761Y-150501400D01*
X134909839Y-150501400D01*
X135378730Y-150408132D01*
X135820415Y-150225179D01*
X136217922Y-149959574D01*
X136555974Y-149621522D01*
X136821579Y-149224015D01*
X137004532Y-148782330D01*
X137097800Y-148313439D01*
X137097800Y-147835361D01*
X137028555Y-147487240D01*
X143563796Y-140952000D01*
X155563151Y-140952000D01*
X155504718Y-141010433D01*
X155297990Y-141319823D01*
X155155593Y-141663599D01*
X155083000Y-142028550D01*
X155083000Y-142400650D01*
X155155593Y-142765601D01*
X155297990Y-143109377D01*
X155504718Y-143418767D01*
X155570551Y-143484600D01*
X155504718Y-143550433D01*
X155297990Y-143859823D01*
X155155593Y-144203599D01*
X155083000Y-144568550D01*
X155083000Y-144940650D01*
X155155593Y-145305601D01*
X155297990Y-145649377D01*
X155504718Y-145958767D01*
X155570551Y-146024600D01*
X155504718Y-146090433D01*
X155297990Y-146399823D01*
X155155593Y-146743599D01*
X155083000Y-147108550D01*
X155083000Y-147480650D01*
X155155593Y-147845601D01*
X155297990Y-148189377D01*
X155504718Y-148498767D01*
X155767833Y-148761882D01*
X155943197Y-148879057D01*
X155890023Y-148932231D01*
X156006433Y-149048641D01*
X155766344Y-149115620D01*
X155649244Y-149364648D01*
X155582977Y-149631735D01*
X155570090Y-149906617D01*
X155611078Y-150178733D01*
X155704364Y-150437623D01*
X155766344Y-150553580D01*
X156006435Y-150620560D01*
X156792395Y-149834600D01*
X156778253Y-149820458D01*
X156957858Y-149640853D01*
X156972000Y-149654995D01*
X156986143Y-149640853D01*
X157165748Y-149820458D01*
X157151605Y-149834600D01*
X157937565Y-150620560D01*
X158177656Y-150553580D01*
X158294756Y-150304552D01*
X158361023Y-150037465D01*
X158373910Y-149762583D01*
X158332922Y-149490467D01*
X158239636Y-149231577D01*
X158177656Y-149115620D01*
X157937567Y-149048641D01*
X158053977Y-148932231D01*
X158000803Y-148879057D01*
X158176167Y-148761882D01*
X158439282Y-148498767D01*
X158646010Y-148189377D01*
X158788407Y-147845601D01*
X158861000Y-147480650D01*
X158861000Y-147108550D01*
X158788407Y-146743599D01*
X158646010Y-146399823D01*
X158439282Y-146090433D01*
X158373449Y-146024600D01*
X158439282Y-145958767D01*
X158646010Y-145649377D01*
X158788407Y-145305601D01*
X158861000Y-144940650D01*
X158861000Y-144568550D01*
X158788407Y-144203599D01*
X158646010Y-143859823D01*
X158439282Y-143550433D01*
X158373449Y-143484600D01*
X158439282Y-143418767D01*
X158646010Y-143109377D01*
X158788407Y-142765601D01*
X158861000Y-142400650D01*
X158861000Y-142028550D01*
X158788407Y-141663599D01*
X158646010Y-141319823D01*
X158439282Y-141010433D01*
X158373449Y-140944600D01*
X158439282Y-140878767D01*
X158646010Y-140569377D01*
X158788407Y-140225601D01*
X158861000Y-139860650D01*
X158861000Y-139488550D01*
X158788407Y-139123599D01*
X158646010Y-138779823D01*
X158439282Y-138470433D01*
X158373449Y-138404600D01*
X158439282Y-138338767D01*
X158646010Y-138029377D01*
X158788407Y-137685601D01*
X158861000Y-137320650D01*
X158861000Y-136948550D01*
X158788407Y-136583599D01*
X158646010Y-136239823D01*
X158439282Y-135930433D01*
X158373449Y-135864600D01*
X158439282Y-135798767D01*
X158646010Y-135489377D01*
X158788407Y-135145601D01*
X158861000Y-134780650D01*
X158861000Y-134408550D01*
X158788407Y-134043599D01*
X158646010Y-133699823D01*
X158439282Y-133390433D01*
X158373449Y-133324600D01*
X158439282Y-133258767D01*
X158646010Y-132949377D01*
X158788407Y-132605601D01*
X158861000Y-132240650D01*
X158861000Y-131868550D01*
X158788407Y-131503599D01*
X158646010Y-131159823D01*
X158439282Y-130850433D01*
X158373449Y-130784600D01*
X158439282Y-130718767D01*
X158646010Y-130409377D01*
X158788407Y-130065601D01*
X158861000Y-129700650D01*
X158861000Y-129328550D01*
X158788407Y-128963599D01*
X158646010Y-128619823D01*
X158439282Y-128310433D01*
X158373449Y-128244600D01*
X158439282Y-128178767D01*
X158646010Y-127869377D01*
X158788407Y-127525601D01*
X158861000Y-127160650D01*
X158861000Y-126788550D01*
X158788407Y-126423599D01*
X158646010Y-126079823D01*
X158439282Y-125770433D01*
X158373449Y-125704600D01*
X158439282Y-125638767D01*
X158646010Y-125329377D01*
X158788407Y-124985601D01*
X158861000Y-124620650D01*
X158861000Y-124248550D01*
X158788407Y-123883599D01*
X158646010Y-123539823D01*
X158439282Y-123230433D01*
X158373449Y-123164600D01*
X158439282Y-123098767D01*
X158646010Y-122789377D01*
X158788407Y-122445601D01*
X158861000Y-122080650D01*
X158861000Y-121708550D01*
X158788407Y-121343599D01*
X158646010Y-120999823D01*
X158439282Y-120690433D01*
X158373449Y-120624600D01*
X158439282Y-120558767D01*
X158646010Y-120249377D01*
X158788407Y-119905601D01*
X158861000Y-119540650D01*
X158861000Y-119168550D01*
X158788407Y-118803599D01*
X158646010Y-118459823D01*
X158439282Y-118150433D01*
X158373449Y-118084600D01*
X158439282Y-118018767D01*
X158646010Y-117709377D01*
X158788407Y-117365601D01*
X158861000Y-117000650D01*
X158861000Y-116628550D01*
X158788407Y-116263599D01*
X158646010Y-115919823D01*
X158439282Y-115610433D01*
X158373449Y-115544600D01*
X158439282Y-115478767D01*
X158646010Y-115169377D01*
X158788407Y-114825601D01*
X158861000Y-114460650D01*
X158861000Y-114088550D01*
X158788407Y-113723599D01*
X158646010Y-113379823D01*
X158439282Y-113070433D01*
X158373449Y-113004600D01*
X158439282Y-112938767D01*
X158646010Y-112629377D01*
X158788407Y-112285601D01*
X158861000Y-111920650D01*
X158861000Y-111548550D01*
X158788407Y-111183599D01*
X158646010Y-110839823D01*
X158439282Y-110530433D01*
X158373449Y-110464600D01*
X158439282Y-110398767D01*
X158646010Y-110089377D01*
X158788407Y-109745601D01*
X158861000Y-109380650D01*
X158861000Y-109008550D01*
X158788407Y-108643599D01*
X158646010Y-108299823D01*
X158439282Y-107990433D01*
X158373449Y-107924600D01*
X158439282Y-107858767D01*
X158646010Y-107549377D01*
X158788407Y-107205601D01*
X158861000Y-106840650D01*
X158861000Y-106468550D01*
X158788407Y-106103599D01*
X158646010Y-105759823D01*
X158439282Y-105450433D01*
X158373449Y-105384600D01*
X158439282Y-105318767D01*
X158646010Y-105009377D01*
X158788407Y-104665601D01*
X158861000Y-104300650D01*
X158861000Y-103928550D01*
X158788407Y-103563599D01*
X158646010Y-103219823D01*
X158439282Y-102910433D01*
X158176167Y-102647318D01*
X157866777Y-102440590D01*
X157523001Y-102298193D01*
X157158050Y-102225600D01*
X156785950Y-102225600D01*
X156420999Y-102298193D01*
X156077223Y-102440590D01*
X155767833Y-102647318D01*
X155504718Y-102910433D01*
X155297990Y-103219823D01*
X155155593Y-103563599D01*
X155083000Y-103928550D01*
X155083000Y-104300650D01*
X155155593Y-104665601D01*
X155297990Y-105009377D01*
X155504718Y-105318767D01*
X155570551Y-105384600D01*
X155504718Y-105450433D01*
X155297990Y-105759823D01*
X155155593Y-106103599D01*
X155083000Y-106468550D01*
X155083000Y-106840650D01*
X155155593Y-107205601D01*
X155297990Y-107549377D01*
X155504718Y-107858767D01*
X155570551Y-107924600D01*
X155504718Y-107990433D01*
X155297990Y-108299823D01*
X155155593Y-108643599D01*
X155083000Y-109008550D01*
X155083000Y-109380650D01*
X155155593Y-109745601D01*
X155297990Y-110089377D01*
X155504718Y-110398767D01*
X155570551Y-110464600D01*
X155504718Y-110530433D01*
X155297990Y-110839823D01*
X155155593Y-111183599D01*
X155083000Y-111548550D01*
X155083000Y-111920650D01*
X155155593Y-112285601D01*
X155297990Y-112629377D01*
X155504718Y-112938767D01*
X155570551Y-113004600D01*
X155504718Y-113070433D01*
X155297990Y-113379823D01*
X155155593Y-113723599D01*
X155083000Y-114088550D01*
X155083000Y-114460650D01*
X155155593Y-114825601D01*
X155297990Y-115169377D01*
X155504718Y-115478767D01*
X155570551Y-115544600D01*
X155504718Y-115610433D01*
X155297990Y-115919823D01*
X155155593Y-116263599D01*
X155083000Y-116628550D01*
X155083000Y-117000650D01*
X155155593Y-117365601D01*
X155297990Y-117709377D01*
X155504718Y-118018767D01*
X155570551Y-118084600D01*
X155504718Y-118150433D01*
X155297990Y-118459823D01*
X155155593Y-118803599D01*
X155083000Y-119168550D01*
X155083000Y-119540650D01*
X155155593Y-119905601D01*
X155297990Y-120249377D01*
X155504718Y-120558767D01*
X155570551Y-120624600D01*
X155504718Y-120690433D01*
X155301927Y-120993932D01*
X150753895Y-116445900D01*
X150831085Y-116330377D01*
X150976347Y-115979685D01*
X151050400Y-115607393D01*
X151050400Y-115227807D01*
X150976347Y-114855515D01*
X150831085Y-114504823D01*
X150620199Y-114189209D01*
X150351791Y-113920801D01*
X150036177Y-113709915D01*
X149685485Y-113564653D01*
X149313193Y-113490600D01*
X148933607Y-113490600D01*
X148561315Y-113564653D01*
X148210623Y-113709915D01*
X147895009Y-113920801D01*
X147626601Y-114189209D01*
X147415715Y-114504823D01*
X147270453Y-114855515D01*
X147196400Y-115227807D01*
X147196400Y-115607393D01*
X147270453Y-115979685D01*
X147415715Y-116330377D01*
X147626601Y-116645991D01*
X147895009Y-116914399D01*
X147919685Y-116930887D01*
X147961107Y-117067437D01*
X148077364Y-117284938D01*
X148233819Y-117475581D01*
X148281592Y-117514787D01*
X155083000Y-124316195D01*
X155083000Y-124620650D01*
X155155593Y-124985601D01*
X155297990Y-125329377D01*
X155504718Y-125638767D01*
X155570551Y-125704600D01*
X155504718Y-125770433D01*
X155301927Y-126073931D01*
X143930787Y-114702792D01*
X143891581Y-114655019D01*
X143700939Y-114498564D01*
X143483438Y-114382307D01*
X143247435Y-114310716D01*
X143063498Y-114292600D01*
X143063496Y-114292600D01*
X143002000Y-114286543D01*
X142940504Y-114292600D01*
X137103253Y-114292600D01*
X137103253Y-114244600D01*
X137081493Y-114023669D01*
X137017050Y-113811229D01*
X136912400Y-113615443D01*
X136771565Y-113443835D01*
X136599957Y-113303000D01*
X136404171Y-113198350D01*
X136191731Y-113133907D01*
X135970800Y-113112147D01*
X133370800Y-113112147D01*
X133149869Y-113133907D01*
X132937429Y-113198350D01*
X132741643Y-113303000D01*
X132570035Y-113443835D01*
X132429200Y-113615443D01*
X132324550Y-113811229D01*
X132260107Y-114023669D01*
X132238347Y-114244600D01*
X128152000Y-114244600D01*
X128152000Y-107775761D01*
X132243800Y-107775761D01*
X132243800Y-108253839D01*
X132337068Y-108722730D01*
X132520021Y-109164415D01*
X132785626Y-109561922D01*
X133123678Y-109899974D01*
X133521185Y-110165579D01*
X133962870Y-110348532D01*
X134431761Y-110441800D01*
X134909839Y-110441800D01*
X135378730Y-110348532D01*
X135820415Y-110165579D01*
X136217922Y-109899974D01*
X136555974Y-109561922D01*
X136821579Y-109164415D01*
X137004532Y-108722730D01*
X137097800Y-108253839D01*
X137097800Y-107775761D01*
X137004532Y-107306870D01*
X136821579Y-106865185D01*
X136555974Y-106467678D01*
X136217922Y-106129626D01*
X135820415Y-105864021D01*
X135378730Y-105681068D01*
X134909839Y-105587800D01*
X134431761Y-105587800D01*
X133962870Y-105681068D01*
X133521185Y-105864021D01*
X133123678Y-106129626D01*
X132785626Y-106467678D01*
X132520021Y-106865185D01*
X132337068Y-107306870D01*
X132243800Y-107775761D01*
X128152000Y-107775761D01*
X128152000Y-102775761D01*
X132243800Y-102775761D01*
X132243800Y-103253839D01*
X132337068Y-103722730D01*
X132520021Y-104164415D01*
X132785626Y-104561922D01*
X133123678Y-104899974D01*
X133521185Y-105165579D01*
X133962870Y-105348532D01*
X134431761Y-105441800D01*
X134909839Y-105441800D01*
X135378730Y-105348532D01*
X135820415Y-105165579D01*
X135966741Y-105067807D01*
X147196400Y-105067807D01*
X147196400Y-105447393D01*
X147270453Y-105819685D01*
X147415715Y-106170377D01*
X147626601Y-106485991D01*
X147895009Y-106754399D01*
X148210623Y-106965285D01*
X148561315Y-107110547D01*
X148933607Y-107184600D01*
X149313193Y-107184600D01*
X149685485Y-107110547D01*
X150036177Y-106965285D01*
X150351791Y-106754399D01*
X150620199Y-106485991D01*
X150831085Y-106170377D01*
X150976347Y-105819685D01*
X151050400Y-105447393D01*
X151050400Y-105067807D01*
X150976347Y-104695515D01*
X150831085Y-104344823D01*
X150620199Y-104029209D01*
X150351791Y-103760801D01*
X150036177Y-103549915D01*
X149685485Y-103404653D01*
X149313193Y-103330600D01*
X148933607Y-103330600D01*
X148561315Y-103404653D01*
X148210623Y-103549915D01*
X147895009Y-103760801D01*
X147626601Y-104029209D01*
X147415715Y-104344823D01*
X147270453Y-104695515D01*
X147196400Y-105067807D01*
X135966741Y-105067807D01*
X136217922Y-104899974D01*
X136555974Y-104561922D01*
X136821579Y-104164415D01*
X137004532Y-103722730D01*
X137097800Y-103253839D01*
X137097800Y-102775761D01*
X137028555Y-102427641D01*
X137620196Y-101836000D01*
X157469405Y-101836000D01*
X159022001Y-103388597D01*
X159022000Y-121604504D01*
X159015943Y-121666000D01*
X159022000Y-121727496D01*
X159022000Y-121727497D01*
X159040116Y-121911434D01*
X159111707Y-122147437D01*
X159227964Y-122364938D01*
X159384419Y-122555581D01*
X159432192Y-122594787D01*
X167193813Y-130356408D01*
X167233019Y-130404181D01*
X167423661Y-130560636D01*
X167641162Y-130676893D01*
X167877165Y-130748484D01*
X168061102Y-130766600D01*
X168061104Y-130766600D01*
X168122600Y-130772657D01*
X168184096Y-130766600D01*
X170792551Y-130766600D01*
X170810551Y-130784600D01*
X170744718Y-130850433D01*
X170537990Y-131159823D01*
X170395593Y-131503599D01*
X170323000Y-131868550D01*
X170323000Y-132240650D01*
X170395593Y-132605601D01*
X170537990Y-132949377D01*
X170744718Y-133258767D01*
X170810551Y-133324600D01*
X170744718Y-133390433D01*
X170537990Y-133699823D01*
X170395593Y-134043599D01*
X170323000Y-134408550D01*
X170323000Y-134780650D01*
X170395593Y-135145601D01*
X170537990Y-135489377D01*
X170744718Y-135798767D01*
X170810551Y-135864600D01*
X170744718Y-135930433D01*
X170537990Y-136239823D01*
X170395593Y-136583599D01*
X170323000Y-136948550D01*
X170323000Y-137320650D01*
X170395593Y-137685601D01*
X170537990Y-138029377D01*
X170744718Y-138338767D01*
X170810551Y-138404600D01*
X170744718Y-138470433D01*
X170537990Y-138779823D01*
X170395593Y-139123599D01*
X170323000Y-139488550D01*
X170323000Y-139860650D01*
X170395593Y-140225601D01*
X170537990Y-140569377D01*
X170744718Y-140878767D01*
X170810551Y-140944600D01*
X170744718Y-141010433D01*
X170537990Y-141319823D01*
X170395593Y-141663599D01*
X170323000Y-142028550D01*
X170323000Y-142400650D01*
X170395593Y-142765601D01*
X170537990Y-143109377D01*
X170744718Y-143418767D01*
X170810551Y-143484600D01*
X170744718Y-143550433D01*
X170537990Y-143859823D01*
X170395593Y-144203599D01*
X170323000Y-144568550D01*
X170323000Y-144940650D01*
X170395593Y-145305601D01*
X170537990Y-145649377D01*
X170744718Y-145958767D01*
X170810551Y-146024600D01*
X170744718Y-146090433D01*
X170537990Y-146399823D01*
X170395593Y-146743599D01*
X170323000Y-147108550D01*
X170323000Y-147480650D01*
X170395593Y-147845601D01*
X170537990Y-148189377D01*
X170744718Y-148498767D01*
X170810551Y-148564600D01*
X170744718Y-148630433D01*
X170537990Y-148939823D01*
X170395593Y-149283599D01*
X170323000Y-149648550D01*
X170323000Y-150020650D01*
X170395593Y-150385601D01*
X170537990Y-150729377D01*
X170618285Y-150849547D01*
X170508400Y-150983443D01*
X170403750Y-151179229D01*
X170339307Y-151391669D01*
X170317547Y-151612600D01*
X170317547Y-153136600D01*
X170339307Y-153357531D01*
X170403750Y-153569971D01*
X170508400Y-153765757D01*
X170649235Y-153937365D01*
X170820843Y-154078200D01*
X171016629Y-154182850D01*
X171229069Y-154247293D01*
X171450000Y-154269053D01*
X172974000Y-154269053D01*
X173194931Y-154247293D01*
X173407371Y-154182850D01*
X173603157Y-154078200D01*
X173774765Y-153937365D01*
X173915600Y-153765757D01*
X174020250Y-153569971D01*
X174084693Y-153357531D01*
X174092155Y-153281764D01*
X174113581Y-153264181D01*
X174152787Y-153216408D01*
X177781195Y-149588000D01*
X180562647Y-149588000D01*
X180062725Y-150087922D01*
X179665794Y-150681971D01*
X179392383Y-151342043D01*
X179253000Y-152042772D01*
X179253000Y-152757228D01*
X179392383Y-153457957D01*
X179665794Y-154118029D01*
X180062725Y-154712078D01*
X180567922Y-155217275D01*
X181161971Y-155614206D01*
X181822043Y-155887617D01*
X182522772Y-156027000D01*
X183237228Y-156027000D01*
X183937957Y-155887617D01*
X184598029Y-155614206D01*
X185192078Y-155217275D01*
X185697275Y-154712078D01*
X186094206Y-154118029D01*
X186367617Y-153457957D01*
X186507000Y-152757228D01*
X186507000Y-152042772D01*
X186367617Y-151342043D01*
X186094206Y-150681971D01*
X185697275Y-150087922D01*
X185197353Y-149588000D01*
X189244805Y-149588000D01*
X191293347Y-151636542D01*
X191293347Y-153598400D01*
X191315107Y-153819331D01*
X191379550Y-154031771D01*
X191484200Y-154227557D01*
X191625035Y-154399165D01*
X191796643Y-154540000D01*
X191992429Y-154644650D01*
X192204869Y-154709093D01*
X192425800Y-154730853D01*
X195025800Y-154730853D01*
X195246731Y-154709093D01*
X195459171Y-154644650D01*
X195654957Y-154540000D01*
X195826565Y-154399165D01*
X195967400Y-154227557D01*
X196072050Y-154031771D01*
X196136493Y-153819331D01*
X196158253Y-153598400D01*
X196158253Y-150998400D01*
X196136493Y-150777469D01*
X196072050Y-150565029D01*
X195967400Y-150369243D01*
X195826565Y-150197635D01*
X195654957Y-150056800D01*
X195459171Y-149952150D01*
X195246731Y-149887707D01*
X195025800Y-149865947D01*
X193063942Y-149865947D01*
X191845619Y-148647624D01*
X192556181Y-148647624D01*
X192688117Y-148942712D01*
X193028845Y-149113559D01*
X193396357Y-149214650D01*
X193776529Y-149242101D01*
X194154751Y-149194857D01*
X194516490Y-149074733D01*
X194763483Y-148942712D01*
X194895419Y-148647624D01*
X193725800Y-147478005D01*
X192556181Y-148647624D01*
X191845619Y-148647624D01*
X190692187Y-147494192D01*
X190652981Y-147446419D01*
X190534433Y-147349129D01*
X191782099Y-147349129D01*
X191829343Y-147727351D01*
X191949467Y-148089090D01*
X192081488Y-148336083D01*
X192376576Y-148468019D01*
X193546195Y-147298400D01*
X193905405Y-147298400D01*
X195075024Y-148468019D01*
X195370112Y-148336083D01*
X195540959Y-147995355D01*
X195642050Y-147627843D01*
X195669501Y-147247671D01*
X195622257Y-146869449D01*
X195502133Y-146507710D01*
X195370112Y-146260717D01*
X195075024Y-146128781D01*
X193905405Y-147298400D01*
X193546195Y-147298400D01*
X192376576Y-146128781D01*
X192081488Y-146260717D01*
X191910641Y-146601445D01*
X191809550Y-146968957D01*
X191782099Y-147349129D01*
X190534433Y-147349129D01*
X190462339Y-147289964D01*
X190244838Y-147173707D01*
X190008835Y-147102116D01*
X189824898Y-147084000D01*
X189824896Y-147084000D01*
X189763400Y-147077943D01*
X189701904Y-147084000D01*
X177324096Y-147084000D01*
X177262600Y-147077943D01*
X177201104Y-147084000D01*
X177201102Y-147084000D01*
X177017165Y-147102116D01*
X176781162Y-147173707D01*
X176563661Y-147289964D01*
X176373019Y-147446419D01*
X176333813Y-147494192D01*
X174101000Y-149727005D01*
X174101000Y-149716195D01*
X177868019Y-145949176D01*
X192556181Y-145949176D01*
X193725800Y-147118795D01*
X194895419Y-145949176D01*
X194763483Y-145654088D01*
X194422755Y-145483241D01*
X194055243Y-145382150D01*
X193675071Y-145354699D01*
X193296849Y-145401943D01*
X192935110Y-145522067D01*
X192688117Y-145654088D01*
X192556181Y-145949176D01*
X177868019Y-145949176D01*
X184566996Y-139250200D01*
X191293347Y-139250200D01*
X191293347Y-139298200D01*
X191315107Y-139519131D01*
X191379550Y-139731571D01*
X191484200Y-139927357D01*
X191625035Y-140098965D01*
X191796643Y-140239800D01*
X191992429Y-140344450D01*
X192204869Y-140408893D01*
X192425800Y-140430653D01*
X195025800Y-140430653D01*
X195246731Y-140408893D01*
X195459171Y-140344450D01*
X195654957Y-140239800D01*
X195826565Y-140098965D01*
X195967400Y-139927357D01*
X196072050Y-139731571D01*
X196136493Y-139519131D01*
X196158253Y-139298200D01*
X196158253Y-136698200D01*
X196136493Y-136477269D01*
X196072050Y-136264829D01*
X195967400Y-136069043D01*
X195826565Y-135897435D01*
X195654957Y-135756600D01*
X195459171Y-135651950D01*
X195246731Y-135587507D01*
X195025800Y-135565747D01*
X192425800Y-135565747D01*
X192204869Y-135587507D01*
X191992429Y-135651950D01*
X191796643Y-135756600D01*
X191625035Y-135897435D01*
X191484200Y-136069043D01*
X191379550Y-136264829D01*
X191315107Y-136477269D01*
X191293347Y-136698200D01*
X191293347Y-136746200D01*
X184530995Y-136746200D01*
X186929771Y-134347424D01*
X192556181Y-134347424D01*
X192688117Y-134642512D01*
X193028845Y-134813359D01*
X193396357Y-134914450D01*
X193776529Y-134941901D01*
X194154751Y-134894657D01*
X194516490Y-134774533D01*
X194763483Y-134642512D01*
X194895419Y-134347424D01*
X193725800Y-133177805D01*
X192556181Y-134347424D01*
X186929771Y-134347424D01*
X188228266Y-133048929D01*
X191782099Y-133048929D01*
X191829343Y-133427151D01*
X191949467Y-133788890D01*
X192081488Y-134035883D01*
X192376576Y-134167819D01*
X193546195Y-132998200D01*
X193905405Y-132998200D01*
X195075024Y-134167819D01*
X195370112Y-134035883D01*
X195540959Y-133695155D01*
X195642050Y-133327643D01*
X195669501Y-132947471D01*
X195622257Y-132569249D01*
X195502133Y-132207510D01*
X195370112Y-131960517D01*
X195075024Y-131828581D01*
X193905405Y-132998200D01*
X193546195Y-132998200D01*
X192376576Y-131828581D01*
X192081488Y-131960517D01*
X191910641Y-132301245D01*
X191809550Y-132668757D01*
X191782099Y-133048929D01*
X188228266Y-133048929D01*
X189628219Y-131648976D01*
X192556181Y-131648976D01*
X193725800Y-132818595D01*
X194895419Y-131648976D01*
X194763483Y-131353888D01*
X194422755Y-131183041D01*
X194055243Y-131081950D01*
X193675071Y-131054499D01*
X193296849Y-131101743D01*
X192935110Y-131221867D01*
X192688117Y-131353888D01*
X192556181Y-131648976D01*
X189628219Y-131648976D01*
X194567609Y-126709586D01*
X194615381Y-126670381D01*
X194771836Y-126479739D01*
X194888093Y-126262238D01*
X194928070Y-126130453D01*
X195025800Y-126130453D01*
X195246731Y-126108693D01*
X195459171Y-126044250D01*
X195654957Y-125939600D01*
X195826565Y-125798765D01*
X195967400Y-125627157D01*
X196072050Y-125431371D01*
X196136493Y-125218931D01*
X196158253Y-124998000D01*
X196158253Y-122398000D01*
X196136493Y-122177069D01*
X196072050Y-121964629D01*
X195967400Y-121768843D01*
X195826565Y-121597235D01*
X195654957Y-121456400D01*
X195459171Y-121351750D01*
X195246731Y-121287307D01*
X195025800Y-121265547D01*
X192425800Y-121265547D01*
X192204869Y-121287307D01*
X191992429Y-121351750D01*
X191796643Y-121456400D01*
X191625035Y-121597235D01*
X191484200Y-121768843D01*
X191379550Y-121964629D01*
X191315107Y-122177069D01*
X191293347Y-122398000D01*
X191293347Y-124998000D01*
X191315107Y-125218931D01*
X191379550Y-125431371D01*
X191484200Y-125627157D01*
X191625035Y-125798765D01*
X191796512Y-125939493D01*
X173882073Y-143853932D01*
X173679282Y-143550433D01*
X173613449Y-143484600D01*
X173679282Y-143418767D01*
X173886010Y-143109377D01*
X174028407Y-142765601D01*
X174101000Y-142400650D01*
X174101000Y-142096195D01*
X181181809Y-135015386D01*
X181229581Y-134976181D01*
X181386036Y-134785539D01*
X181502293Y-134568038D01*
X181573884Y-134332035D01*
X181592000Y-134148098D01*
X181592000Y-134148096D01*
X181598057Y-134086600D01*
X181592000Y-134025104D01*
X181592000Y-120047224D01*
X192556181Y-120047224D01*
X192688117Y-120342312D01*
X193028845Y-120513159D01*
X193396357Y-120614250D01*
X193776529Y-120641701D01*
X194154751Y-120594457D01*
X194516490Y-120474333D01*
X194763483Y-120342312D01*
X194895419Y-120047224D01*
X193725800Y-118877605D01*
X192556181Y-120047224D01*
X181592000Y-120047224D01*
X181592000Y-118748729D01*
X191782099Y-118748729D01*
X191829343Y-119126951D01*
X191949467Y-119488690D01*
X192081488Y-119735683D01*
X192376576Y-119867619D01*
X193546195Y-118698000D01*
X193905405Y-118698000D01*
X195075024Y-119867619D01*
X195370112Y-119735683D01*
X195540959Y-119394955D01*
X195642050Y-119027443D01*
X195669501Y-118647271D01*
X195622257Y-118269049D01*
X195502133Y-117907310D01*
X195370112Y-117660317D01*
X195075024Y-117528381D01*
X193905405Y-118698000D01*
X193546195Y-118698000D01*
X192376576Y-117528381D01*
X192081488Y-117660317D01*
X191910641Y-118001045D01*
X191809550Y-118368557D01*
X191782099Y-118748729D01*
X181592000Y-118748729D01*
X181592000Y-117348776D01*
X192556181Y-117348776D01*
X193725800Y-118518395D01*
X194895419Y-117348776D01*
X194763483Y-117053688D01*
X194422755Y-116882841D01*
X194055243Y-116781750D01*
X193675071Y-116754299D01*
X193296849Y-116801543D01*
X192935110Y-116921667D01*
X192688117Y-117053688D01*
X192556181Y-117348776D01*
X181592000Y-117348776D01*
X181592000Y-116890790D01*
X181836799Y-116645991D01*
X182047685Y-116330377D01*
X182192947Y-115979685D01*
X182267000Y-115607393D01*
X182267000Y-115227807D01*
X182192947Y-114855515D01*
X182047685Y-114504823D01*
X181836799Y-114189209D01*
X181568391Y-113920801D01*
X181252777Y-113709915D01*
X181078619Y-113637776D01*
X191524823Y-103191573D01*
X191392068Y-103512070D01*
X191298800Y-103980961D01*
X191298800Y-104459039D01*
X191392068Y-104927930D01*
X191575021Y-105369615D01*
X191840626Y-105767122D01*
X192178678Y-106105174D01*
X192576185Y-106370779D01*
X193017870Y-106553732D01*
X193486761Y-106647000D01*
X193964839Y-106647000D01*
X194006078Y-106638797D01*
X193857328Y-106787547D01*
X192425800Y-106787547D01*
X192204869Y-106809307D01*
X191992429Y-106873750D01*
X191796643Y-106978400D01*
X191625035Y-107119235D01*
X191484200Y-107290843D01*
X191379550Y-107486629D01*
X191315107Y-107699069D01*
X191293347Y-107920000D01*
X191293347Y-110520000D01*
X191315107Y-110740931D01*
X191379550Y-110953371D01*
X191484200Y-111149157D01*
X191625035Y-111320765D01*
X191796643Y-111461600D01*
X191992429Y-111566250D01*
X192204869Y-111630693D01*
X192425800Y-111652453D01*
X195025800Y-111652453D01*
X195246731Y-111630693D01*
X195459171Y-111566250D01*
X195654957Y-111461600D01*
X195826565Y-111320765D01*
X195967400Y-111149157D01*
X196072050Y-110953371D01*
X196136493Y-110740931D01*
X196158253Y-110520000D01*
X196158253Y-109088472D01*
X200229951Y-105016775D01*
X200292029Y-104965829D01*
X200342975Y-104903751D01*
X200342978Y-104903748D01*
X200495346Y-104718086D01*
X200646424Y-104435440D01*
X200646998Y-104433548D01*
X200739458Y-104128748D01*
X200763000Y-103889725D01*
X200763000Y-103889715D01*
X200770871Y-103809801D01*
X200763000Y-103729886D01*
X200763000Y-73993914D01*
X200770871Y-73913999D01*
X200763000Y-73834085D01*
X200763000Y-73834075D01*
X200739458Y-73595052D01*
X200646425Y-73288362D01*
X200495346Y-73005714D01*
X200452085Y-72953000D01*
X200342978Y-72820052D01*
X200342975Y-72820049D01*
X200292029Y-72757971D01*
X200229952Y-72707026D01*
X197040979Y-69518054D01*
X196990029Y-69455971D01*
X196742286Y-69252654D01*
X196459638Y-69101575D01*
X196152948Y-69008542D01*
X195913925Y-68985000D01*
X195913914Y-68985000D01*
X195834000Y-68977129D01*
X195754086Y-68985000D01*
X189563914Y-68985000D01*
X189483999Y-68977129D01*
X189404085Y-68985000D01*
X189404075Y-68985000D01*
X189165052Y-69008542D01*
X188858362Y-69101575D01*
X188765781Y-69151061D01*
X188575714Y-69252654D01*
X188390052Y-69405022D01*
X188390049Y-69405025D01*
X188327971Y-69455971D01*
X188277025Y-69518049D01*
X183056050Y-74739025D01*
X182993972Y-74789971D01*
X182943026Y-74852049D01*
X182943022Y-74852053D01*
X182790654Y-75037715D01*
X182746149Y-75120978D01*
X182639576Y-75320362D01*
X182564161Y-75568975D01*
X182546543Y-75627053D01*
X182515129Y-75946000D01*
X182523001Y-76025924D01*
X182523000Y-78628967D01*
X182497851Y-78654116D01*
X182265077Y-79002488D01*
X182104739Y-79389577D01*
X182023000Y-79800509D01*
X182023000Y-79836074D01*
X168324050Y-93535025D01*
X168261972Y-93585971D01*
X168211026Y-93648049D01*
X168211022Y-93648053D01*
X168058654Y-93833715D01*
X167948181Y-94040395D01*
X167907576Y-94116362D01*
X167860750Y-94270729D01*
X167814543Y-94423053D01*
X167783129Y-94742000D01*
X167791001Y-94821924D01*
X167791001Y-99518081D01*
X167683099Y-99356594D01*
X167470406Y-99143901D01*
X167220306Y-98976790D01*
X166942410Y-98861681D01*
X166763737Y-98826141D01*
X166733000Y-98795405D01*
X166733000Y-77527595D01*
X171978142Y-72282453D01*
X173940000Y-72282453D01*
X174160931Y-72260693D01*
X174373371Y-72196250D01*
X174569157Y-72091600D01*
X174740765Y-71950765D01*
X174881600Y-71779157D01*
X174986250Y-71583371D01*
X175050693Y-71370931D01*
X175072453Y-71150000D01*
X175072453Y-68550000D01*
X175050693Y-68329069D01*
X175018449Y-68222772D01*
X179253000Y-68222772D01*
X179253000Y-68937228D01*
X179392383Y-69637957D01*
X179665794Y-70298029D01*
X180062725Y-70892078D01*
X180567922Y-71397275D01*
X181161971Y-71794206D01*
X181822043Y-72067617D01*
X182522772Y-72207000D01*
X183237228Y-72207000D01*
X183937957Y-72067617D01*
X184598029Y-71794206D01*
X185192078Y-71397275D01*
X185697275Y-70892078D01*
X186094206Y-70298029D01*
X186367617Y-69637957D01*
X186507000Y-68937228D01*
X186507000Y-68222772D01*
X186367617Y-67522043D01*
X186094206Y-66861971D01*
X185697275Y-66267922D01*
X185192078Y-65762725D01*
X184598029Y-65365794D01*
X183937957Y-65092383D01*
X183237228Y-64953000D01*
X182522772Y-64953000D01*
X181822043Y-65092383D01*
X181161971Y-65365794D01*
X180567922Y-65762725D01*
X180062725Y-66267922D01*
X179665794Y-66861971D01*
X179392383Y-67522043D01*
X179253000Y-68222772D01*
X175018449Y-68222772D01*
X174986250Y-68116629D01*
X174881600Y-67920843D01*
X174740765Y-67749235D01*
X174569157Y-67608400D01*
X174373371Y-67503750D01*
X174160931Y-67439307D01*
X173940000Y-67417547D01*
X171340000Y-67417547D01*
X171119069Y-67439307D01*
X170906629Y-67503750D01*
X170710843Y-67608400D01*
X170539235Y-67749235D01*
X170398400Y-67920843D01*
X170293750Y-68116629D01*
X170229307Y-68329069D01*
X170207547Y-68550000D01*
X170207547Y-70511858D01*
X164639188Y-76080217D01*
X164591420Y-76119419D01*
X164552218Y-76167187D01*
X164552217Y-76167188D01*
X164434964Y-76310062D01*
X164318707Y-76527563D01*
X164247117Y-76763566D01*
X164222943Y-77009000D01*
X164229001Y-77070506D01*
X164229000Y-99252504D01*
X164222943Y-99314000D01*
X164229000Y-99375496D01*
X164229000Y-99375497D01*
X164247116Y-99559434D01*
X164318707Y-99795437D01*
X164434964Y-100012938D01*
X164591419Y-100203581D01*
X164639192Y-100242787D01*
X164993141Y-100596737D01*
X165028681Y-100775410D01*
X165143790Y-101053306D01*
X165310901Y-101303406D01*
X165523594Y-101516099D01*
X165773694Y-101683210D01*
X166051590Y-101798319D01*
X166346604Y-101857000D01*
X166647396Y-101857000D01*
X166942410Y-101798319D01*
X167220306Y-101683210D01*
X167470406Y-101516099D01*
X167683099Y-101303406D01*
X167791000Y-101141920D01*
X167791000Y-106320685D01*
X167783129Y-106400600D01*
X167791000Y-106480514D01*
X167791000Y-106480524D01*
X167814542Y-106719547D01*
X167907575Y-107026237D01*
X168058654Y-107308885D01*
X168261971Y-107556629D01*
X168324054Y-107607579D01*
X170379085Y-109662611D01*
X170395593Y-109745601D01*
X170537990Y-110089377D01*
X170744718Y-110398767D01*
X170810551Y-110464600D01*
X170744718Y-110530433D01*
X170537990Y-110839823D01*
X170395593Y-111183599D01*
X170323000Y-111548550D01*
X170323000Y-111920650D01*
X170395593Y-112285601D01*
X170537990Y-112629377D01*
X170744718Y-112938767D01*
X170810551Y-113004600D01*
X170744718Y-113070433D01*
X170537990Y-113379823D01*
X170395593Y-113723599D01*
X170323000Y-114088550D01*
X170323000Y-114460650D01*
X170395593Y-114825601D01*
X170537990Y-115169377D01*
X170744718Y-115478767D01*
X170810551Y-115544600D01*
X170744718Y-115610433D01*
X170537990Y-115919823D01*
X170395593Y-116263599D01*
X170323000Y-116628550D01*
X170323000Y-117000650D01*
X170395593Y-117365601D01*
X170537990Y-117709377D01*
X170744718Y-118018767D01*
X170810551Y-118084600D01*
X170744718Y-118150433D01*
X170537990Y-118459823D01*
X170395593Y-118803599D01*
X170323000Y-119168550D01*
X170323000Y-119540650D01*
X170395593Y-119905601D01*
X170537990Y-120249377D01*
X170744718Y-120558767D01*
X170810551Y-120624600D01*
X170744718Y-120690433D01*
X170537990Y-120999823D01*
X170395593Y-121343599D01*
X170323000Y-121708550D01*
X170323000Y-122080650D01*
X170395593Y-122445601D01*
X170537990Y-122789377D01*
X170744718Y-123098767D01*
X170810551Y-123164600D01*
X170744718Y-123230433D01*
X170537990Y-123539823D01*
X170395593Y-123883599D01*
X170323000Y-124248550D01*
X170323000Y-124620650D01*
X170395593Y-124985601D01*
X170537990Y-125329377D01*
X170744718Y-125638767D01*
X170810551Y-125704600D01*
X170744718Y-125770433D01*
X170537990Y-126079823D01*
X170395593Y-126423599D01*
X170323000Y-126788550D01*
X170323000Y-127160650D01*
X170395593Y-127525601D01*
X170537990Y-127869377D01*
X170744718Y-128178767D01*
X170810551Y-128244600D01*
X170792551Y-128262600D01*
X168641195Y-128262600D01*
X161526000Y-121147405D01*
X161526000Y-102931495D01*
X161532057Y-102869999D01*
X161522145Y-102769366D01*
X161507884Y-102624565D01*
X161436293Y-102388562D01*
X161417743Y-102353857D01*
X161320036Y-102171060D01*
X161202783Y-102028187D01*
X161163581Y-101980419D01*
X161115813Y-101941217D01*
X158916787Y-99742192D01*
X158877581Y-99694419D01*
X158686939Y-99537964D01*
X158469438Y-99421707D01*
X158233435Y-99350116D01*
X158049498Y-99332000D01*
X158049496Y-99332000D01*
X157988000Y-99325943D01*
X157926504Y-99332000D01*
X137163095Y-99332000D01*
X137101599Y-99325943D01*
X137040103Y-99332000D01*
X137040102Y-99332000D01*
X136856165Y-99350116D01*
X136620162Y-99421707D01*
X136402660Y-99537964D01*
X136289221Y-99631061D01*
X136212019Y-99694419D01*
X136172817Y-99742187D01*
X135257959Y-100657045D01*
X134909839Y-100587800D01*
X134431761Y-100587800D01*
X133962870Y-100681068D01*
X133521185Y-100864021D01*
X133123678Y-101129626D01*
X132785626Y-101467678D01*
X132520021Y-101865185D01*
X132337068Y-102306870D01*
X132243800Y-102775761D01*
X128152000Y-102775761D01*
X128152000Y-99364024D01*
X133501181Y-99364024D01*
X133633117Y-99659112D01*
X133973845Y-99829959D01*
X134341357Y-99931050D01*
X134721529Y-99958501D01*
X135099751Y-99911257D01*
X135461490Y-99791133D01*
X135708483Y-99659112D01*
X135840419Y-99364024D01*
X134670800Y-98194405D01*
X133501181Y-99364024D01*
X128152000Y-99364024D01*
X128152000Y-98065529D01*
X132727099Y-98065529D01*
X132774343Y-98443751D01*
X132894467Y-98805490D01*
X133026488Y-99052483D01*
X133321576Y-99184419D01*
X134491195Y-98014800D01*
X134850405Y-98014800D01*
X136020024Y-99184419D01*
X136315112Y-99052483D01*
X136485959Y-98711755D01*
X136587050Y-98344243D01*
X136590936Y-98290413D01*
X143824192Y-98290413D01*
X143919956Y-98554814D01*
X144209571Y-98695704D01*
X144521108Y-98777384D01*
X144842595Y-98796718D01*
X145161675Y-98752961D01*
X145466088Y-98647795D01*
X145640044Y-98554814D01*
X145735808Y-98290413D01*
X144780000Y-97334605D01*
X143824192Y-98290413D01*
X136590936Y-98290413D01*
X136614501Y-97964071D01*
X136567257Y-97585849D01*
X136447133Y-97224110D01*
X136443651Y-97217595D01*
X143138282Y-97217595D01*
X143182039Y-97536675D01*
X143287205Y-97841088D01*
X143380186Y-98015044D01*
X143644587Y-98110808D01*
X144600395Y-97155000D01*
X144959605Y-97155000D01*
X145915413Y-98110808D01*
X146179814Y-98015044D01*
X146320704Y-97725429D01*
X146402384Y-97413892D01*
X146421718Y-97092405D01*
X146377961Y-96773325D01*
X146272795Y-96468912D01*
X146179814Y-96294956D01*
X145915413Y-96199192D01*
X144959605Y-97155000D01*
X144600395Y-97155000D01*
X143644587Y-96199192D01*
X143380186Y-96294956D01*
X143239296Y-96584571D01*
X143157616Y-96896108D01*
X143138282Y-97217595D01*
X136443651Y-97217595D01*
X136315112Y-96977117D01*
X136020024Y-96845181D01*
X134850405Y-98014800D01*
X134491195Y-98014800D01*
X133321576Y-96845181D01*
X133026488Y-96977117D01*
X132855641Y-97317845D01*
X132754550Y-97685357D01*
X132727099Y-98065529D01*
X128152000Y-98065529D01*
X128152000Y-96665576D01*
X133501181Y-96665576D01*
X134670800Y-97835195D01*
X135840419Y-96665576D01*
X135708483Y-96370488D01*
X135367755Y-96199641D01*
X135000243Y-96098550D01*
X134620071Y-96071099D01*
X134241849Y-96118343D01*
X133880110Y-96238467D01*
X133633117Y-96370488D01*
X133501181Y-96665576D01*
X128152000Y-96665576D01*
X128152000Y-96019587D01*
X143824192Y-96019587D01*
X144780000Y-96975395D01*
X145735808Y-96019587D01*
X145640044Y-95755186D01*
X145350429Y-95614296D01*
X145038892Y-95532616D01*
X144717405Y-95513282D01*
X144398325Y-95557039D01*
X144093912Y-95662205D01*
X143919956Y-95755186D01*
X143824192Y-96019587D01*
X128152000Y-96019587D01*
X128152000Y-91714800D01*
X132238347Y-91714800D01*
X132238347Y-94314800D01*
X132260107Y-94535731D01*
X132324550Y-94748171D01*
X132429200Y-94943957D01*
X132570035Y-95115565D01*
X132741643Y-95256400D01*
X132937429Y-95361050D01*
X133149869Y-95425493D01*
X133370800Y-95447253D01*
X135970800Y-95447253D01*
X136191731Y-95425493D01*
X136404171Y-95361050D01*
X136599957Y-95256400D01*
X136771565Y-95115565D01*
X136912400Y-94943957D01*
X137017050Y-94748171D01*
X137081493Y-94535731D01*
X137103253Y-94314800D01*
X137103253Y-91714800D01*
X137081493Y-91493869D01*
X137017050Y-91281429D01*
X136912400Y-91085643D01*
X136771565Y-90914035D01*
X136599957Y-90773200D01*
X136404171Y-90668550D01*
X136191731Y-90604107D01*
X135970800Y-90582347D01*
X133370800Y-90582347D01*
X133149869Y-90604107D01*
X132937429Y-90668550D01*
X132741643Y-90773200D01*
X132570035Y-90914035D01*
X132429200Y-91085643D01*
X132324550Y-91281429D01*
X132260107Y-91493869D01*
X132238347Y-91714800D01*
X128152000Y-91714800D01*
X128152000Y-87757000D01*
X152400000Y-87757000D01*
X152424776Y-87754560D01*
X152448601Y-87747333D01*
X152470557Y-87735597D01*
X152489803Y-87719803D01*
X152505597Y-87700557D01*
X152517333Y-87678601D01*
X152524560Y-87654776D01*
X152527000Y-87630000D01*
X152527000Y-71199224D01*
X153850381Y-71199224D01*
X153982317Y-71494312D01*
X154323045Y-71665159D01*
X154690557Y-71766250D01*
X155070729Y-71793701D01*
X155448951Y-71746457D01*
X155810690Y-71626333D01*
X156057683Y-71494312D01*
X156189619Y-71199224D01*
X155020000Y-70029605D01*
X153850381Y-71199224D01*
X152527000Y-71199224D01*
X152527000Y-69900729D01*
X153076299Y-69900729D01*
X153123543Y-70278951D01*
X153243667Y-70640690D01*
X153375688Y-70887683D01*
X153670776Y-71019619D01*
X154840395Y-69850000D01*
X155199605Y-69850000D01*
X156369224Y-71019619D01*
X156664312Y-70887683D01*
X156835159Y-70546955D01*
X156936250Y-70179443D01*
X156963701Y-69799271D01*
X156916457Y-69421049D01*
X156796333Y-69059310D01*
X156664312Y-68812317D01*
X156369224Y-68680381D01*
X155199605Y-69850000D01*
X154840395Y-69850000D01*
X153670776Y-68680381D01*
X153375688Y-68812317D01*
X153204841Y-69153045D01*
X153103750Y-69520557D01*
X153076299Y-69900729D01*
X152527000Y-69900729D01*
X152527000Y-68500776D01*
X153850381Y-68500776D01*
X155020000Y-69670395D01*
X156140395Y-68550000D01*
X157587547Y-68550000D01*
X157587547Y-71150000D01*
X157609307Y-71370931D01*
X157673750Y-71583371D01*
X157778400Y-71779157D01*
X157919235Y-71950765D01*
X158090843Y-72091600D01*
X158286629Y-72196250D01*
X158499069Y-72260693D01*
X158720000Y-72282453D01*
X161320000Y-72282453D01*
X161540931Y-72260693D01*
X161753371Y-72196250D01*
X161949157Y-72091600D01*
X162120765Y-71950765D01*
X162261600Y-71779157D01*
X162366250Y-71583371D01*
X162430693Y-71370931D01*
X162447604Y-71199224D01*
X166470381Y-71199224D01*
X166602317Y-71494312D01*
X166943045Y-71665159D01*
X167310557Y-71766250D01*
X167690729Y-71793701D01*
X168068951Y-71746457D01*
X168430690Y-71626333D01*
X168677683Y-71494312D01*
X168809619Y-71199224D01*
X167640000Y-70029605D01*
X166470381Y-71199224D01*
X162447604Y-71199224D01*
X162452453Y-71150000D01*
X162452453Y-69900729D01*
X165696299Y-69900729D01*
X165743543Y-70278951D01*
X165863667Y-70640690D01*
X165995688Y-70887683D01*
X166290776Y-71019619D01*
X167460395Y-69850000D01*
X167819605Y-69850000D01*
X168989224Y-71019619D01*
X169284312Y-70887683D01*
X169455159Y-70546955D01*
X169556250Y-70179443D01*
X169583701Y-69799271D01*
X169536457Y-69421049D01*
X169416333Y-69059310D01*
X169284312Y-68812317D01*
X168989224Y-68680381D01*
X167819605Y-69850000D01*
X167460395Y-69850000D01*
X166290776Y-68680381D01*
X165995688Y-68812317D01*
X165824841Y-69153045D01*
X165723750Y-69520557D01*
X165696299Y-69900729D01*
X162452453Y-69900729D01*
X162452453Y-68550000D01*
X162447605Y-68500776D01*
X166470381Y-68500776D01*
X167640000Y-69670395D01*
X168809619Y-68500776D01*
X168677683Y-68205688D01*
X168336955Y-68034841D01*
X167969443Y-67933750D01*
X167589271Y-67906299D01*
X167211049Y-67953543D01*
X166849310Y-68073667D01*
X166602317Y-68205688D01*
X166470381Y-68500776D01*
X162447605Y-68500776D01*
X162430693Y-68329069D01*
X162366250Y-68116629D01*
X162261600Y-67920843D01*
X162120765Y-67749235D01*
X161949157Y-67608400D01*
X161753371Y-67503750D01*
X161540931Y-67439307D01*
X161320000Y-67417547D01*
X158720000Y-67417547D01*
X158499069Y-67439307D01*
X158286629Y-67503750D01*
X158090843Y-67608400D01*
X157919235Y-67749235D01*
X157778400Y-67920843D01*
X157673750Y-68116629D01*
X157609307Y-68329069D01*
X157587547Y-68550000D01*
X156140395Y-68550000D01*
X156189619Y-68500776D01*
X156057683Y-68205688D01*
X155716955Y-68034841D01*
X155349443Y-67933750D01*
X154969271Y-67906299D01*
X154591049Y-67953543D01*
X154229310Y-68073667D01*
X153982317Y-68205688D01*
X153850381Y-68500776D01*
X152527000Y-68500776D01*
X152527000Y-63382000D01*
X198063657Y-63382000D01*
X198635202Y-63438041D01*
%TA.AperFunction,Conductor*%
D25*
G36*
X198635202Y-63438041D02*
G01*
X199130781Y-63587665D01*
X199587857Y-63830696D01*
X199989026Y-64157882D01*
X200319003Y-64556756D01*
X200565219Y-65012122D01*
X200718300Y-65506649D01*
X200778000Y-66074656D01*
X200778001Y-154883647D01*
X200721960Y-155455201D01*
X200572335Y-155950780D01*
X200329304Y-156407857D01*
X200002118Y-156809027D01*
X199603249Y-157139000D01*
X199147877Y-157385219D01*
X198653352Y-157538300D01*
X198085344Y-157598000D01*
X130866343Y-157598000D01*
X130294799Y-157541960D01*
X129799220Y-157392335D01*
X129342143Y-157149304D01*
X128940973Y-156822118D01*
X128611000Y-156423249D01*
X128364781Y-155967877D01*
X128211700Y-155473352D01*
X128152000Y-154905344D01*
X128152000Y-152835361D01*
X132243800Y-152835361D01*
X132243800Y-153313439D01*
X132337068Y-153782330D01*
X132520021Y-154224015D01*
X132785626Y-154621522D01*
X133123678Y-154959574D01*
X133521185Y-155225179D01*
X133962870Y-155408132D01*
X134431761Y-155501400D01*
X134909839Y-155501400D01*
X135378730Y-155408132D01*
X135820415Y-155225179D01*
X136217922Y-154959574D01*
X136555974Y-154621522D01*
X136821579Y-154224015D01*
X137004532Y-153782330D01*
X137097800Y-153313439D01*
X137097800Y-152835361D01*
X137004532Y-152366470D01*
X136870452Y-152042772D01*
X142423000Y-152042772D01*
X142423000Y-152757228D01*
X142562383Y-153457957D01*
X142835794Y-154118029D01*
X143232725Y-154712078D01*
X143737922Y-155217275D01*
X144331971Y-155614206D01*
X144992043Y-155887617D01*
X145692772Y-156027000D01*
X146407228Y-156027000D01*
X147107957Y-155887617D01*
X147768029Y-155614206D01*
X148362078Y-155217275D01*
X148867275Y-154712078D01*
X149264206Y-154118029D01*
X149537617Y-153457957D01*
X149561047Y-153340165D01*
X156186040Y-153340165D01*
X156253020Y-153580256D01*
X156502048Y-153697356D01*
X156769135Y-153763623D01*
X157044017Y-153776510D01*
X157316133Y-153735522D01*
X157575023Y-153642236D01*
X157690980Y-153580256D01*
X157757960Y-153340165D01*
X156972000Y-152554205D01*
X156186040Y-153340165D01*
X149561047Y-153340165D01*
X149677000Y-152757228D01*
X149677000Y-152446617D01*
X155570090Y-152446617D01*
X155611078Y-152718733D01*
X155704364Y-152977623D01*
X155766344Y-153093580D01*
X156006435Y-153160560D01*
X156792395Y-152374600D01*
X157151605Y-152374600D01*
X157937565Y-153160560D01*
X158177656Y-153093580D01*
X158294756Y-152844552D01*
X158361023Y-152577465D01*
X158373910Y-152302583D01*
X158332922Y-152030467D01*
X158239636Y-151771577D01*
X158177656Y-151655620D01*
X157937565Y-151588640D01*
X157151605Y-152374600D01*
X156792395Y-152374600D01*
X156006435Y-151588640D01*
X155766344Y-151655620D01*
X155649244Y-151904648D01*
X155582977Y-152171735D01*
X155570090Y-152446617D01*
X149677000Y-152446617D01*
X149677000Y-152042772D01*
X149537617Y-151342043D01*
X149313164Y-150800165D01*
X156186040Y-150800165D01*
X156253020Y-151040256D01*
X156383644Y-151101679D01*
X156368977Y-151106964D01*
X156253020Y-151168944D01*
X156186040Y-151409035D01*
X156972000Y-152194995D01*
X157757960Y-151409035D01*
X157690980Y-151168944D01*
X157560356Y-151107521D01*
X157575023Y-151102236D01*
X157690980Y-151040256D01*
X157757960Y-150800165D01*
X156972000Y-150014205D01*
X156186040Y-150800165D01*
X149313164Y-150800165D01*
X149264206Y-150681971D01*
X148867275Y-150087922D01*
X148362078Y-149582725D01*
X147768029Y-149185794D01*
X147107957Y-148912383D01*
X146407228Y-148773000D01*
X145692772Y-148773000D01*
X144992043Y-148912383D01*
X144331971Y-149185794D01*
X143737922Y-149582725D01*
X143232725Y-150087922D01*
X142835794Y-150681971D01*
X142562383Y-151342043D01*
X142423000Y-152042772D01*
X136870452Y-152042772D01*
X136821579Y-151924785D01*
X136555974Y-151527278D01*
X136217922Y-151189226D01*
X135820415Y-150923621D01*
X135378730Y-150740668D01*
X134909839Y-150647400D01*
X134431761Y-150647400D01*
X133962870Y-150740668D01*
X133521185Y-150923621D01*
X133123678Y-151189226D01*
X132785626Y-151527278D01*
X132520021Y-151924785D01*
X132337068Y-152366470D01*
X132243800Y-152835361D01*
X128152000Y-152835361D01*
X128152000Y-144423624D01*
X133501181Y-144423624D01*
X133633117Y-144718712D01*
X133973845Y-144889559D01*
X134341357Y-144990650D01*
X134721529Y-145018101D01*
X135099751Y-144970857D01*
X135461490Y-144850733D01*
X135708483Y-144718712D01*
X135840419Y-144423624D01*
X134670800Y-143254005D01*
X133501181Y-144423624D01*
X128152000Y-144423624D01*
X128152000Y-143125129D01*
X132727099Y-143125129D01*
X132774343Y-143503351D01*
X132894467Y-143865090D01*
X133026488Y-144112083D01*
X133321576Y-144244019D01*
X134491195Y-143074400D01*
X134850405Y-143074400D01*
X136020024Y-144244019D01*
X136315112Y-144112083D01*
X136485959Y-143771355D01*
X136587050Y-143403843D01*
X136614501Y-143023671D01*
X136567257Y-142645449D01*
X136447133Y-142283710D01*
X136315112Y-142036717D01*
X136020024Y-141904781D01*
X134850405Y-143074400D01*
X134491195Y-143074400D01*
X133321576Y-141904781D01*
X133026488Y-142036717D01*
X132855641Y-142377445D01*
X132754550Y-142744957D01*
X132727099Y-143125129D01*
X128152000Y-143125129D01*
X128152000Y-141725176D01*
X133501181Y-141725176D01*
X134670800Y-142894795D01*
X135840419Y-141725176D01*
X135708483Y-141430088D01*
X135367755Y-141259241D01*
X135000243Y-141158150D01*
X134620071Y-141130699D01*
X134241849Y-141177943D01*
X133880110Y-141298067D01*
X133633117Y-141430088D01*
X133501181Y-141725176D01*
X128152000Y-141725176D01*
X128152000Y-125305561D01*
X132243800Y-125305561D01*
X132243800Y-125783639D01*
X132337068Y-126252530D01*
X132520021Y-126694215D01*
X132785626Y-127091722D01*
X133123678Y-127429774D01*
X133521185Y-127695379D01*
X133962870Y-127878332D01*
X134431761Y-127971600D01*
X134909839Y-127971600D01*
X135378730Y-127878332D01*
X135820415Y-127695379D01*
X136217922Y-127429774D01*
X136555974Y-127091722D01*
X136821579Y-126694215D01*
X137004532Y-126252530D01*
X137097800Y-125783639D01*
X137097800Y-125305561D01*
X137004532Y-124836670D01*
X136821579Y-124394985D01*
X136555974Y-123997478D01*
X136217922Y-123659426D01*
X135820415Y-123393821D01*
X135378730Y-123210868D01*
X134909839Y-123117600D01*
X134431761Y-123117600D01*
X133962870Y-123210868D01*
X133521185Y-123393821D01*
X133123678Y-123659426D01*
X132785626Y-123997478D01*
X132520021Y-124394985D01*
X132337068Y-124836670D01*
X132243800Y-125305561D01*
X128152000Y-125305561D01*
X128152000Y-121893824D01*
X133501181Y-121893824D01*
X133633117Y-122188912D01*
X133973845Y-122359759D01*
X134341357Y-122460850D01*
X134721529Y-122488301D01*
X135099751Y-122441057D01*
X135461490Y-122320933D01*
X135708483Y-122188912D01*
X135840419Y-121893824D01*
X134670800Y-120724205D01*
X133501181Y-121893824D01*
X128152000Y-121893824D01*
X128152000Y-120595329D01*
X132727099Y-120595329D01*
X132774343Y-120973551D01*
X132894467Y-121335290D01*
X133026488Y-121582283D01*
X133321576Y-121714219D01*
X134491195Y-120544600D01*
X134850405Y-120544600D01*
X136020024Y-121714219D01*
X136315112Y-121582283D01*
X136485959Y-121241555D01*
X136587050Y-120874043D01*
X136614501Y-120493871D01*
X136567257Y-120115649D01*
X136447133Y-119753910D01*
X136315112Y-119506917D01*
X136020024Y-119374981D01*
X134850405Y-120544600D01*
X134491195Y-120544600D01*
X133321576Y-119374981D01*
X133026488Y-119506917D01*
X132855641Y-119847645D01*
X132754550Y-120215157D01*
X132727099Y-120595329D01*
X128152000Y-120595329D01*
X128152000Y-119195376D01*
X133501181Y-119195376D01*
X134670800Y-120364995D01*
X135840419Y-119195376D01*
X135708483Y-118900288D01*
X135367755Y-118729441D01*
X135000243Y-118628350D01*
X134620071Y-118600899D01*
X134241849Y-118648143D01*
X133880110Y-118768267D01*
X133633117Y-118900288D01*
X133501181Y-119195376D01*
X128152000Y-119195376D01*
X128152000Y-114244600D01*
X132238347Y-114244600D01*
X132238347Y-116844600D01*
X132260107Y-117065531D01*
X132324550Y-117277971D01*
X132429200Y-117473757D01*
X132570035Y-117645365D01*
X132741643Y-117786200D01*
X132937429Y-117890850D01*
X133149869Y-117955293D01*
X133370800Y-117977053D01*
X135970800Y-117977053D01*
X136191731Y-117955293D01*
X136404171Y-117890850D01*
X136599957Y-117786200D01*
X136771565Y-117645365D01*
X136912400Y-117473757D01*
X137017050Y-117277971D01*
X137081493Y-117065531D01*
X137103253Y-116844600D01*
X137103253Y-116796600D01*
X142483405Y-116796600D01*
X154979404Y-129292600D01*
X136753168Y-129292600D01*
X136555974Y-128997478D01*
X136217922Y-128659426D01*
X135820415Y-128393821D01*
X135378730Y-128210868D01*
X134909839Y-128117600D01*
X134431761Y-128117600D01*
X133962870Y-128210868D01*
X133521185Y-128393821D01*
X133123678Y-128659426D01*
X132785626Y-128997478D01*
X132520021Y-129394985D01*
X132337068Y-129836670D01*
X132243800Y-130305561D01*
X132243800Y-130783639D01*
X132337068Y-131252530D01*
X132520021Y-131694215D01*
X132785626Y-132091722D01*
X133123678Y-132429774D01*
X133521185Y-132695379D01*
X133962870Y-132878332D01*
X134431761Y-132971600D01*
X134909839Y-132971600D01*
X135378730Y-132878332D01*
X135820415Y-132695379D01*
X136217922Y-132429774D01*
X136555974Y-132091722D01*
X136753168Y-131796600D01*
X154943405Y-131796600D01*
X155083000Y-131936195D01*
X155083000Y-132240650D01*
X155155593Y-132605601D01*
X155297990Y-132949377D01*
X155504718Y-133258767D01*
X155570551Y-133324600D01*
X155527151Y-133368000D01*
X144079495Y-133368000D01*
X144017999Y-133361943D01*
X143956503Y-133368000D01*
X143956502Y-133368000D01*
X143772565Y-133386116D01*
X143536562Y-133457707D01*
X143319060Y-133573964D01*
X143207137Y-133665817D01*
X143128419Y-133730419D01*
X143089217Y-133778187D01*
X142227263Y-134640141D01*
X142048590Y-134675681D01*
X141770694Y-134790790D01*
X141520594Y-134957901D01*
X141307901Y-135170594D01*
X141140790Y-135420694D01*
X141025681Y-135698590D01*
X140967000Y-135993604D01*
X140967000Y-136294396D01*
X141025681Y-136589410D01*
X141122189Y-136822400D01*
X137103253Y-136822400D01*
X137103253Y-136774400D01*
X137081493Y-136553469D01*
X137017050Y-136341029D01*
X136912400Y-136145243D01*
X136771565Y-135973635D01*
X136599957Y-135832800D01*
X136404171Y-135728150D01*
X136191731Y-135663707D01*
X135970800Y-135641947D01*
X133370800Y-135641947D01*
X133149869Y-135663707D01*
X132937429Y-135728150D01*
X132741643Y-135832800D01*
X132570035Y-135973635D01*
X132429200Y-136145243D01*
X132324550Y-136341029D01*
X132260107Y-136553469D01*
X132238347Y-136774400D01*
X132238347Y-139374400D01*
X132260107Y-139595331D01*
X132324550Y-139807771D01*
X132429200Y-140003557D01*
X132570035Y-140175165D01*
X132741643Y-140316000D01*
X132937429Y-140420650D01*
X133149869Y-140485093D01*
X133370800Y-140506853D01*
X135970800Y-140506853D01*
X136191731Y-140485093D01*
X136404171Y-140420650D01*
X136599957Y-140316000D01*
X136771565Y-140175165D01*
X136912400Y-140003557D01*
X137017050Y-139807771D01*
X137081493Y-139595331D01*
X137103253Y-139374400D01*
X137103253Y-139326400D01*
X141648204Y-139326400D01*
X135257960Y-145716645D01*
X134909839Y-145647400D01*
X134431761Y-145647400D01*
X133962870Y-145740668D01*
X133521185Y-145923621D01*
X133123678Y-146189226D01*
X132785626Y-146527278D01*
X132520021Y-146924785D01*
X132337068Y-147366470D01*
X132243800Y-147835361D01*
X132243800Y-148313439D01*
X132337068Y-148782330D01*
X132520021Y-149224015D01*
X132785626Y-149621522D01*
X133123678Y-149959574D01*
X133521185Y-150225179D01*
X133962870Y-150408132D01*
X134431761Y-150501400D01*
X134909839Y-150501400D01*
X135378730Y-150408132D01*
X135820415Y-150225179D01*
X136217922Y-149959574D01*
X136555974Y-149621522D01*
X136821579Y-149224015D01*
X137004532Y-148782330D01*
X137097800Y-148313439D01*
X137097800Y-147835361D01*
X137028555Y-147487240D01*
X143563796Y-140952000D01*
X155563151Y-140952000D01*
X155504718Y-141010433D01*
X155297990Y-141319823D01*
X155155593Y-141663599D01*
X155083000Y-142028550D01*
X155083000Y-142400650D01*
X155155593Y-142765601D01*
X155297990Y-143109377D01*
X155504718Y-143418767D01*
X155570551Y-143484600D01*
X155504718Y-143550433D01*
X155297990Y-143859823D01*
X155155593Y-144203599D01*
X155083000Y-144568550D01*
X155083000Y-144940650D01*
X155155593Y-145305601D01*
X155297990Y-145649377D01*
X155504718Y-145958767D01*
X155570551Y-146024600D01*
X155504718Y-146090433D01*
X155297990Y-146399823D01*
X155155593Y-146743599D01*
X155083000Y-147108550D01*
X155083000Y-147480650D01*
X155155593Y-147845601D01*
X155297990Y-148189377D01*
X155504718Y-148498767D01*
X155767833Y-148761882D01*
X155943197Y-148879057D01*
X155890023Y-148932231D01*
X156006433Y-149048641D01*
X155766344Y-149115620D01*
X155649244Y-149364648D01*
X155582977Y-149631735D01*
X155570090Y-149906617D01*
X155611078Y-150178733D01*
X155704364Y-150437623D01*
X155766344Y-150553580D01*
X156006435Y-150620560D01*
X156792395Y-149834600D01*
X156778253Y-149820458D01*
X156957858Y-149640853D01*
X156972000Y-149654995D01*
X156986143Y-149640853D01*
X157165748Y-149820458D01*
X157151605Y-149834600D01*
X157937565Y-150620560D01*
X158177656Y-150553580D01*
X158294756Y-150304552D01*
X158361023Y-150037465D01*
X158373910Y-149762583D01*
X158332922Y-149490467D01*
X158239636Y-149231577D01*
X158177656Y-149115620D01*
X157937567Y-149048641D01*
X158053977Y-148932231D01*
X158000803Y-148879057D01*
X158176167Y-148761882D01*
X158439282Y-148498767D01*
X158646010Y-148189377D01*
X158788407Y-147845601D01*
X158861000Y-147480650D01*
X158861000Y-147108550D01*
X158788407Y-146743599D01*
X158646010Y-146399823D01*
X158439282Y-146090433D01*
X158373449Y-146024600D01*
X158439282Y-145958767D01*
X158646010Y-145649377D01*
X158788407Y-145305601D01*
X158861000Y-144940650D01*
X158861000Y-144568550D01*
X158788407Y-144203599D01*
X158646010Y-143859823D01*
X158439282Y-143550433D01*
X158373449Y-143484600D01*
X158439282Y-143418767D01*
X158646010Y-143109377D01*
X158788407Y-142765601D01*
X158861000Y-142400650D01*
X158861000Y-142028550D01*
X158788407Y-141663599D01*
X158646010Y-141319823D01*
X158439282Y-141010433D01*
X158373449Y-140944600D01*
X158439282Y-140878767D01*
X158646010Y-140569377D01*
X158788407Y-140225601D01*
X158861000Y-139860650D01*
X158861000Y-139488550D01*
X158788407Y-139123599D01*
X158646010Y-138779823D01*
X158439282Y-138470433D01*
X158373449Y-138404600D01*
X158439282Y-138338767D01*
X158646010Y-138029377D01*
X158788407Y-137685601D01*
X158861000Y-137320650D01*
X158861000Y-136948550D01*
X158788407Y-136583599D01*
X158646010Y-136239823D01*
X158439282Y-135930433D01*
X158373449Y-135864600D01*
X158439282Y-135798767D01*
X158646010Y-135489377D01*
X158788407Y-135145601D01*
X158861000Y-134780650D01*
X158861000Y-134408550D01*
X158788407Y-134043599D01*
X158646010Y-133699823D01*
X158439282Y-133390433D01*
X158373449Y-133324600D01*
X158439282Y-133258767D01*
X158646010Y-132949377D01*
X158788407Y-132605601D01*
X158861000Y-132240650D01*
X158861000Y-131868550D01*
X158788407Y-131503599D01*
X158646010Y-131159823D01*
X158439282Y-130850433D01*
X158373449Y-130784600D01*
X158439282Y-130718767D01*
X158646010Y-130409377D01*
X158788407Y-130065601D01*
X158861000Y-129700650D01*
X158861000Y-129328550D01*
X158788407Y-128963599D01*
X158646010Y-128619823D01*
X158439282Y-128310433D01*
X158373449Y-128244600D01*
X158439282Y-128178767D01*
X158646010Y-127869377D01*
X158788407Y-127525601D01*
X158861000Y-127160650D01*
X158861000Y-126788550D01*
X158788407Y-126423599D01*
X158646010Y-126079823D01*
X158439282Y-125770433D01*
X158373449Y-125704600D01*
X158439282Y-125638767D01*
X158646010Y-125329377D01*
X158788407Y-124985601D01*
X158861000Y-124620650D01*
X158861000Y-124248550D01*
X158788407Y-123883599D01*
X158646010Y-123539823D01*
X158439282Y-123230433D01*
X158373449Y-123164600D01*
X158439282Y-123098767D01*
X158646010Y-122789377D01*
X158788407Y-122445601D01*
X158861000Y-122080650D01*
X158861000Y-121708550D01*
X158788407Y-121343599D01*
X158646010Y-120999823D01*
X158439282Y-120690433D01*
X158373449Y-120624600D01*
X158439282Y-120558767D01*
X158646010Y-120249377D01*
X158788407Y-119905601D01*
X158861000Y-119540650D01*
X158861000Y-119168550D01*
X158788407Y-118803599D01*
X158646010Y-118459823D01*
X158439282Y-118150433D01*
X158373449Y-118084600D01*
X158439282Y-118018767D01*
X158646010Y-117709377D01*
X158788407Y-117365601D01*
X158861000Y-117000650D01*
X158861000Y-116628550D01*
X158788407Y-116263599D01*
X158646010Y-115919823D01*
X158439282Y-115610433D01*
X158373449Y-115544600D01*
X158439282Y-115478767D01*
X158646010Y-115169377D01*
X158788407Y-114825601D01*
X158861000Y-114460650D01*
X158861000Y-114088550D01*
X158788407Y-113723599D01*
X158646010Y-113379823D01*
X158439282Y-113070433D01*
X158373449Y-113004600D01*
X158439282Y-112938767D01*
X158646010Y-112629377D01*
X158788407Y-112285601D01*
X158861000Y-111920650D01*
X158861000Y-111548550D01*
X158788407Y-111183599D01*
X158646010Y-110839823D01*
X158439282Y-110530433D01*
X158373449Y-110464600D01*
X158439282Y-110398767D01*
X158646010Y-110089377D01*
X158788407Y-109745601D01*
X158861000Y-109380650D01*
X158861000Y-109008550D01*
X158788407Y-108643599D01*
X158646010Y-108299823D01*
X158439282Y-107990433D01*
X158373449Y-107924600D01*
X158439282Y-107858767D01*
X158646010Y-107549377D01*
X158788407Y-107205601D01*
X158861000Y-106840650D01*
X158861000Y-106468550D01*
X158788407Y-106103599D01*
X158646010Y-105759823D01*
X158439282Y-105450433D01*
X158373449Y-105384600D01*
X158439282Y-105318767D01*
X158646010Y-105009377D01*
X158788407Y-104665601D01*
X158861000Y-104300650D01*
X158861000Y-103928550D01*
X158788407Y-103563599D01*
X158646010Y-103219823D01*
X158439282Y-102910433D01*
X158176167Y-102647318D01*
X157866777Y-102440590D01*
X157523001Y-102298193D01*
X157158050Y-102225600D01*
X156785950Y-102225600D01*
X156420999Y-102298193D01*
X156077223Y-102440590D01*
X155767833Y-102647318D01*
X155504718Y-102910433D01*
X155297990Y-103219823D01*
X155155593Y-103563599D01*
X155083000Y-103928550D01*
X155083000Y-104300650D01*
X155155593Y-104665601D01*
X155297990Y-105009377D01*
X155504718Y-105318767D01*
X155570551Y-105384600D01*
X155504718Y-105450433D01*
X155297990Y-105759823D01*
X155155593Y-106103599D01*
X155083000Y-106468550D01*
X155083000Y-106840650D01*
X155155593Y-107205601D01*
X155297990Y-107549377D01*
X155504718Y-107858767D01*
X155570551Y-107924600D01*
X155504718Y-107990433D01*
X155297990Y-108299823D01*
X155155593Y-108643599D01*
X155083000Y-109008550D01*
X155083000Y-109380650D01*
X155155593Y-109745601D01*
X155297990Y-110089377D01*
X155504718Y-110398767D01*
X155570551Y-110464600D01*
X155504718Y-110530433D01*
X155297990Y-110839823D01*
X155155593Y-111183599D01*
X155083000Y-111548550D01*
X155083000Y-111920650D01*
X155155593Y-112285601D01*
X155297990Y-112629377D01*
X155504718Y-112938767D01*
X155570551Y-113004600D01*
X155504718Y-113070433D01*
X155297990Y-113379823D01*
X155155593Y-113723599D01*
X155083000Y-114088550D01*
X155083000Y-114460650D01*
X155155593Y-114825601D01*
X155297990Y-115169377D01*
X155504718Y-115478767D01*
X155570551Y-115544600D01*
X155504718Y-115610433D01*
X155297990Y-115919823D01*
X155155593Y-116263599D01*
X155083000Y-116628550D01*
X155083000Y-117000650D01*
X155155593Y-117365601D01*
X155297990Y-117709377D01*
X155504718Y-118018767D01*
X155570551Y-118084600D01*
X155504718Y-118150433D01*
X155297990Y-118459823D01*
X155155593Y-118803599D01*
X155083000Y-119168550D01*
X155083000Y-119540650D01*
X155155593Y-119905601D01*
X155297990Y-120249377D01*
X155504718Y-120558767D01*
X155570551Y-120624600D01*
X155504718Y-120690433D01*
X155301927Y-120993932D01*
X150753895Y-116445900D01*
X150831085Y-116330377D01*
X150976347Y-115979685D01*
X151050400Y-115607393D01*
X151050400Y-115227807D01*
X150976347Y-114855515D01*
X150831085Y-114504823D01*
X150620199Y-114189209D01*
X150351791Y-113920801D01*
X150036177Y-113709915D01*
X149685485Y-113564653D01*
X149313193Y-113490600D01*
X148933607Y-113490600D01*
X148561315Y-113564653D01*
X148210623Y-113709915D01*
X147895009Y-113920801D01*
X147626601Y-114189209D01*
X147415715Y-114504823D01*
X147270453Y-114855515D01*
X147196400Y-115227807D01*
X147196400Y-115607393D01*
X147270453Y-115979685D01*
X147415715Y-116330377D01*
X147626601Y-116645991D01*
X147895009Y-116914399D01*
X147919685Y-116930887D01*
X147961107Y-117067437D01*
X148077364Y-117284938D01*
X148233819Y-117475581D01*
X148281592Y-117514787D01*
X155083000Y-124316195D01*
X155083000Y-124620650D01*
X155155593Y-124985601D01*
X155297990Y-125329377D01*
X155504718Y-125638767D01*
X155570551Y-125704600D01*
X155504718Y-125770433D01*
X155301927Y-126073931D01*
X143930787Y-114702792D01*
X143891581Y-114655019D01*
X143700939Y-114498564D01*
X143483438Y-114382307D01*
X143247435Y-114310716D01*
X143063498Y-114292600D01*
X143063496Y-114292600D01*
X143002000Y-114286543D01*
X142940504Y-114292600D01*
X137103253Y-114292600D01*
X137103253Y-114244600D01*
X137081493Y-114023669D01*
X137017050Y-113811229D01*
X136912400Y-113615443D01*
X136771565Y-113443835D01*
X136599957Y-113303000D01*
X136404171Y-113198350D01*
X136191731Y-113133907D01*
X135970800Y-113112147D01*
X133370800Y-113112147D01*
X133149869Y-113133907D01*
X132937429Y-113198350D01*
X132741643Y-113303000D01*
X132570035Y-113443835D01*
X132429200Y-113615443D01*
X132324550Y-113811229D01*
X132260107Y-114023669D01*
X132238347Y-114244600D01*
X128152000Y-114244600D01*
X128152000Y-107775761D01*
X132243800Y-107775761D01*
X132243800Y-108253839D01*
X132337068Y-108722730D01*
X132520021Y-109164415D01*
X132785626Y-109561922D01*
X133123678Y-109899974D01*
X133521185Y-110165579D01*
X133962870Y-110348532D01*
X134431761Y-110441800D01*
X134909839Y-110441800D01*
X135378730Y-110348532D01*
X135820415Y-110165579D01*
X136217922Y-109899974D01*
X136555974Y-109561922D01*
X136821579Y-109164415D01*
X137004532Y-108722730D01*
X137097800Y-108253839D01*
X137097800Y-107775761D01*
X137004532Y-107306870D01*
X136821579Y-106865185D01*
X136555974Y-106467678D01*
X136217922Y-106129626D01*
X135820415Y-105864021D01*
X135378730Y-105681068D01*
X134909839Y-105587800D01*
X134431761Y-105587800D01*
X133962870Y-105681068D01*
X133521185Y-105864021D01*
X133123678Y-106129626D01*
X132785626Y-106467678D01*
X132520021Y-106865185D01*
X132337068Y-107306870D01*
X132243800Y-107775761D01*
X128152000Y-107775761D01*
X128152000Y-102775761D01*
X132243800Y-102775761D01*
X132243800Y-103253839D01*
X132337068Y-103722730D01*
X132520021Y-104164415D01*
X132785626Y-104561922D01*
X133123678Y-104899974D01*
X133521185Y-105165579D01*
X133962870Y-105348532D01*
X134431761Y-105441800D01*
X134909839Y-105441800D01*
X135378730Y-105348532D01*
X135820415Y-105165579D01*
X135966741Y-105067807D01*
X147196400Y-105067807D01*
X147196400Y-105447393D01*
X147270453Y-105819685D01*
X147415715Y-106170377D01*
X147626601Y-106485991D01*
X147895009Y-106754399D01*
X148210623Y-106965285D01*
X148561315Y-107110547D01*
X148933607Y-107184600D01*
X149313193Y-107184600D01*
X149685485Y-107110547D01*
X150036177Y-106965285D01*
X150351791Y-106754399D01*
X150620199Y-106485991D01*
X150831085Y-106170377D01*
X150976347Y-105819685D01*
X151050400Y-105447393D01*
X151050400Y-105067807D01*
X150976347Y-104695515D01*
X150831085Y-104344823D01*
X150620199Y-104029209D01*
X150351791Y-103760801D01*
X150036177Y-103549915D01*
X149685485Y-103404653D01*
X149313193Y-103330600D01*
X148933607Y-103330600D01*
X148561315Y-103404653D01*
X148210623Y-103549915D01*
X147895009Y-103760801D01*
X147626601Y-104029209D01*
X147415715Y-104344823D01*
X147270453Y-104695515D01*
X147196400Y-105067807D01*
X135966741Y-105067807D01*
X136217922Y-104899974D01*
X136555974Y-104561922D01*
X136821579Y-104164415D01*
X137004532Y-103722730D01*
X137097800Y-103253839D01*
X137097800Y-102775761D01*
X137028555Y-102427641D01*
X137620196Y-101836000D01*
X157469405Y-101836000D01*
X159022001Y-103388597D01*
X159022000Y-121604504D01*
X159015943Y-121666000D01*
X159022000Y-121727496D01*
X159022000Y-121727497D01*
X159040116Y-121911434D01*
X159111707Y-122147437D01*
X159227964Y-122364938D01*
X159384419Y-122555581D01*
X159432192Y-122594787D01*
X167193813Y-130356408D01*
X167233019Y-130404181D01*
X167423661Y-130560636D01*
X167641162Y-130676893D01*
X167877165Y-130748484D01*
X168061102Y-130766600D01*
X168061104Y-130766600D01*
X168122600Y-130772657D01*
X168184096Y-130766600D01*
X170792551Y-130766600D01*
X170810551Y-130784600D01*
X170744718Y-130850433D01*
X170537990Y-131159823D01*
X170395593Y-131503599D01*
X170323000Y-131868550D01*
X170323000Y-132240650D01*
X170395593Y-132605601D01*
X170537990Y-132949377D01*
X170744718Y-133258767D01*
X170810551Y-133324600D01*
X170744718Y-133390433D01*
X170537990Y-133699823D01*
X170395593Y-134043599D01*
X170323000Y-134408550D01*
X170323000Y-134780650D01*
X170395593Y-135145601D01*
X170537990Y-135489377D01*
X170744718Y-135798767D01*
X170810551Y-135864600D01*
X170744718Y-135930433D01*
X170537990Y-136239823D01*
X170395593Y-136583599D01*
X170323000Y-136948550D01*
X170323000Y-137320650D01*
X170395593Y-137685601D01*
X170537990Y-138029377D01*
X170744718Y-138338767D01*
X170810551Y-138404600D01*
X170744718Y-138470433D01*
X170537990Y-138779823D01*
X170395593Y-139123599D01*
X170323000Y-139488550D01*
X170323000Y-139860650D01*
X170395593Y-140225601D01*
X170537990Y-140569377D01*
X170744718Y-140878767D01*
X170810551Y-140944600D01*
X170744718Y-141010433D01*
X170537990Y-141319823D01*
X170395593Y-141663599D01*
X170323000Y-142028550D01*
X170323000Y-142400650D01*
X170395593Y-142765601D01*
X170537990Y-143109377D01*
X170744718Y-143418767D01*
X170810551Y-143484600D01*
X170744718Y-143550433D01*
X170537990Y-143859823D01*
X170395593Y-144203599D01*
X170323000Y-144568550D01*
X170323000Y-144940650D01*
X170395593Y-145305601D01*
X170537990Y-145649377D01*
X170744718Y-145958767D01*
X170810551Y-146024600D01*
X170744718Y-146090433D01*
X170537990Y-146399823D01*
X170395593Y-146743599D01*
X170323000Y-147108550D01*
X170323000Y-147480650D01*
X170395593Y-147845601D01*
X170537990Y-148189377D01*
X170744718Y-148498767D01*
X170810551Y-148564600D01*
X170744718Y-148630433D01*
X170537990Y-148939823D01*
X170395593Y-149283599D01*
X170323000Y-149648550D01*
X170323000Y-150020650D01*
X170395593Y-150385601D01*
X170537990Y-150729377D01*
X170618285Y-150849547D01*
X170508400Y-150983443D01*
X170403750Y-151179229D01*
X170339307Y-151391669D01*
X170317547Y-151612600D01*
X170317547Y-153136600D01*
X170339307Y-153357531D01*
X170403750Y-153569971D01*
X170508400Y-153765757D01*
X170649235Y-153937365D01*
X170820843Y-154078200D01*
X171016629Y-154182850D01*
X171229069Y-154247293D01*
X171450000Y-154269053D01*
X172974000Y-154269053D01*
X173194931Y-154247293D01*
X173407371Y-154182850D01*
X173603157Y-154078200D01*
X173774765Y-153937365D01*
X173915600Y-153765757D01*
X174020250Y-153569971D01*
X174084693Y-153357531D01*
X174092155Y-153281764D01*
X174113581Y-153264181D01*
X174152787Y-153216408D01*
X177781195Y-149588000D01*
X180562647Y-149588000D01*
X180062725Y-150087922D01*
X179665794Y-150681971D01*
X179392383Y-151342043D01*
X179253000Y-152042772D01*
X179253000Y-152757228D01*
X179392383Y-153457957D01*
X179665794Y-154118029D01*
X180062725Y-154712078D01*
X180567922Y-155217275D01*
X181161971Y-155614206D01*
X181822043Y-155887617D01*
X182522772Y-156027000D01*
X183237228Y-156027000D01*
X183937957Y-155887617D01*
X184598029Y-155614206D01*
X185192078Y-155217275D01*
X185697275Y-154712078D01*
X186094206Y-154118029D01*
X186367617Y-153457957D01*
X186507000Y-152757228D01*
X186507000Y-152042772D01*
X186367617Y-151342043D01*
X186094206Y-150681971D01*
X185697275Y-150087922D01*
X185197353Y-149588000D01*
X189244805Y-149588000D01*
X191293347Y-151636542D01*
X191293347Y-153598400D01*
X191315107Y-153819331D01*
X191379550Y-154031771D01*
X191484200Y-154227557D01*
X191625035Y-154399165D01*
X191796643Y-154540000D01*
X191992429Y-154644650D01*
X192204869Y-154709093D01*
X192425800Y-154730853D01*
X195025800Y-154730853D01*
X195246731Y-154709093D01*
X195459171Y-154644650D01*
X195654957Y-154540000D01*
X195826565Y-154399165D01*
X195967400Y-154227557D01*
X196072050Y-154031771D01*
X196136493Y-153819331D01*
X196158253Y-153598400D01*
X196158253Y-150998400D01*
X196136493Y-150777469D01*
X196072050Y-150565029D01*
X195967400Y-150369243D01*
X195826565Y-150197635D01*
X195654957Y-150056800D01*
X195459171Y-149952150D01*
X195246731Y-149887707D01*
X195025800Y-149865947D01*
X193063942Y-149865947D01*
X191845619Y-148647624D01*
X192556181Y-148647624D01*
X192688117Y-148942712D01*
X193028845Y-149113559D01*
X193396357Y-149214650D01*
X193776529Y-149242101D01*
X194154751Y-149194857D01*
X194516490Y-149074733D01*
X194763483Y-148942712D01*
X194895419Y-148647624D01*
X193725800Y-147478005D01*
X192556181Y-148647624D01*
X191845619Y-148647624D01*
X190692187Y-147494192D01*
X190652981Y-147446419D01*
X190534433Y-147349129D01*
X191782099Y-147349129D01*
X191829343Y-147727351D01*
X191949467Y-148089090D01*
X192081488Y-148336083D01*
X192376576Y-148468019D01*
X193546195Y-147298400D01*
X193905405Y-147298400D01*
X195075024Y-148468019D01*
X195370112Y-148336083D01*
X195540959Y-147995355D01*
X195642050Y-147627843D01*
X195669501Y-147247671D01*
X195622257Y-146869449D01*
X195502133Y-146507710D01*
X195370112Y-146260717D01*
X195075024Y-146128781D01*
X193905405Y-147298400D01*
X193546195Y-147298400D01*
X192376576Y-146128781D01*
X192081488Y-146260717D01*
X191910641Y-146601445D01*
X191809550Y-146968957D01*
X191782099Y-147349129D01*
X190534433Y-147349129D01*
X190462339Y-147289964D01*
X190244838Y-147173707D01*
X190008835Y-147102116D01*
X189824898Y-147084000D01*
X189824896Y-147084000D01*
X189763400Y-147077943D01*
X189701904Y-147084000D01*
X177324096Y-147084000D01*
X177262600Y-147077943D01*
X177201104Y-147084000D01*
X177201102Y-147084000D01*
X177017165Y-147102116D01*
X176781162Y-147173707D01*
X176563661Y-147289964D01*
X176373019Y-147446419D01*
X176333813Y-147494192D01*
X174101000Y-149727005D01*
X174101000Y-149716195D01*
X177868019Y-145949176D01*
X192556181Y-145949176D01*
X193725800Y-147118795D01*
X194895419Y-145949176D01*
X194763483Y-145654088D01*
X194422755Y-145483241D01*
X194055243Y-145382150D01*
X193675071Y-145354699D01*
X193296849Y-145401943D01*
X192935110Y-145522067D01*
X192688117Y-145654088D01*
X192556181Y-145949176D01*
X177868019Y-145949176D01*
X184566996Y-139250200D01*
X191293347Y-139250200D01*
X191293347Y-139298200D01*
X191315107Y-139519131D01*
X191379550Y-139731571D01*
X191484200Y-139927357D01*
X191625035Y-140098965D01*
X191796643Y-140239800D01*
X191992429Y-140344450D01*
X192204869Y-140408893D01*
X192425800Y-140430653D01*
X195025800Y-140430653D01*
X195246731Y-140408893D01*
X195459171Y-140344450D01*
X195654957Y-140239800D01*
X195826565Y-140098965D01*
X195967400Y-139927357D01*
X196072050Y-139731571D01*
X196136493Y-139519131D01*
X196158253Y-139298200D01*
X196158253Y-136698200D01*
X196136493Y-136477269D01*
X196072050Y-136264829D01*
X195967400Y-136069043D01*
X195826565Y-135897435D01*
X195654957Y-135756600D01*
X195459171Y-135651950D01*
X195246731Y-135587507D01*
X195025800Y-135565747D01*
X192425800Y-135565747D01*
X192204869Y-135587507D01*
X191992429Y-135651950D01*
X191796643Y-135756600D01*
X191625035Y-135897435D01*
X191484200Y-136069043D01*
X191379550Y-136264829D01*
X191315107Y-136477269D01*
X191293347Y-136698200D01*
X191293347Y-136746200D01*
X184530995Y-136746200D01*
X186929771Y-134347424D01*
X192556181Y-134347424D01*
X192688117Y-134642512D01*
X193028845Y-134813359D01*
X193396357Y-134914450D01*
X193776529Y-134941901D01*
X194154751Y-134894657D01*
X194516490Y-134774533D01*
X194763483Y-134642512D01*
X194895419Y-134347424D01*
X193725800Y-133177805D01*
X192556181Y-134347424D01*
X186929771Y-134347424D01*
X188228266Y-133048929D01*
X191782099Y-133048929D01*
X191829343Y-133427151D01*
X191949467Y-133788890D01*
X192081488Y-134035883D01*
X192376576Y-134167819D01*
X193546195Y-132998200D01*
X193905405Y-132998200D01*
X195075024Y-134167819D01*
X195370112Y-134035883D01*
X195540959Y-133695155D01*
X195642050Y-133327643D01*
X195669501Y-132947471D01*
X195622257Y-132569249D01*
X195502133Y-132207510D01*
X195370112Y-131960517D01*
X195075024Y-131828581D01*
X193905405Y-132998200D01*
X193546195Y-132998200D01*
X192376576Y-131828581D01*
X192081488Y-131960517D01*
X191910641Y-132301245D01*
X191809550Y-132668757D01*
X191782099Y-133048929D01*
X188228266Y-133048929D01*
X189628219Y-131648976D01*
X192556181Y-131648976D01*
X193725800Y-132818595D01*
X194895419Y-131648976D01*
X194763483Y-131353888D01*
X194422755Y-131183041D01*
X194055243Y-131081950D01*
X193675071Y-131054499D01*
X193296849Y-131101743D01*
X192935110Y-131221867D01*
X192688117Y-131353888D01*
X192556181Y-131648976D01*
X189628219Y-131648976D01*
X194567609Y-126709586D01*
X194615381Y-126670381D01*
X194771836Y-126479739D01*
X194888093Y-126262238D01*
X194928070Y-126130453D01*
X195025800Y-126130453D01*
X195246731Y-126108693D01*
X195459171Y-126044250D01*
X195654957Y-125939600D01*
X195826565Y-125798765D01*
X195967400Y-125627157D01*
X196072050Y-125431371D01*
X196136493Y-125218931D01*
X196158253Y-124998000D01*
X196158253Y-122398000D01*
X196136493Y-122177069D01*
X196072050Y-121964629D01*
X195967400Y-121768843D01*
X195826565Y-121597235D01*
X195654957Y-121456400D01*
X195459171Y-121351750D01*
X195246731Y-121287307D01*
X195025800Y-121265547D01*
X192425800Y-121265547D01*
X192204869Y-121287307D01*
X191992429Y-121351750D01*
X191796643Y-121456400D01*
X191625035Y-121597235D01*
X191484200Y-121768843D01*
X191379550Y-121964629D01*
X191315107Y-122177069D01*
X191293347Y-122398000D01*
X191293347Y-124998000D01*
X191315107Y-125218931D01*
X191379550Y-125431371D01*
X191484200Y-125627157D01*
X191625035Y-125798765D01*
X191796512Y-125939493D01*
X173882073Y-143853932D01*
X173679282Y-143550433D01*
X173613449Y-143484600D01*
X173679282Y-143418767D01*
X173886010Y-143109377D01*
X174028407Y-142765601D01*
X174101000Y-142400650D01*
X174101000Y-142096195D01*
X181181809Y-135015386D01*
X181229581Y-134976181D01*
X181386036Y-134785539D01*
X181502293Y-134568038D01*
X181573884Y-134332035D01*
X181592000Y-134148098D01*
X181592000Y-134148096D01*
X181598057Y-134086600D01*
X181592000Y-134025104D01*
X181592000Y-120047224D01*
X192556181Y-120047224D01*
X192688117Y-120342312D01*
X193028845Y-120513159D01*
X193396357Y-120614250D01*
X193776529Y-120641701D01*
X194154751Y-120594457D01*
X194516490Y-120474333D01*
X194763483Y-120342312D01*
X194895419Y-120047224D01*
X193725800Y-118877605D01*
X192556181Y-120047224D01*
X181592000Y-120047224D01*
X181592000Y-118748729D01*
X191782099Y-118748729D01*
X191829343Y-119126951D01*
X191949467Y-119488690D01*
X192081488Y-119735683D01*
X192376576Y-119867619D01*
X193546195Y-118698000D01*
X193905405Y-118698000D01*
X195075024Y-119867619D01*
X195370112Y-119735683D01*
X195540959Y-119394955D01*
X195642050Y-119027443D01*
X195669501Y-118647271D01*
X195622257Y-118269049D01*
X195502133Y-117907310D01*
X195370112Y-117660317D01*
X195075024Y-117528381D01*
X193905405Y-118698000D01*
X193546195Y-118698000D01*
X192376576Y-117528381D01*
X192081488Y-117660317D01*
X191910641Y-118001045D01*
X191809550Y-118368557D01*
X191782099Y-118748729D01*
X181592000Y-118748729D01*
X181592000Y-117348776D01*
X192556181Y-117348776D01*
X193725800Y-118518395D01*
X194895419Y-117348776D01*
X194763483Y-117053688D01*
X194422755Y-116882841D01*
X194055243Y-116781750D01*
X193675071Y-116754299D01*
X193296849Y-116801543D01*
X192935110Y-116921667D01*
X192688117Y-117053688D01*
X192556181Y-117348776D01*
X181592000Y-117348776D01*
X181592000Y-116890790D01*
X181836799Y-116645991D01*
X182047685Y-116330377D01*
X182192947Y-115979685D01*
X182267000Y-115607393D01*
X182267000Y-115227807D01*
X182192947Y-114855515D01*
X182047685Y-114504823D01*
X181836799Y-114189209D01*
X181568391Y-113920801D01*
X181252777Y-113709915D01*
X181078619Y-113637776D01*
X191524823Y-103191573D01*
X191392068Y-103512070D01*
X191298800Y-103980961D01*
X191298800Y-104459039D01*
X191392068Y-104927930D01*
X191575021Y-105369615D01*
X191840626Y-105767122D01*
X192178678Y-106105174D01*
X192576185Y-106370779D01*
X193017870Y-106553732D01*
X193486761Y-106647000D01*
X193964839Y-106647000D01*
X194006078Y-106638797D01*
X193857328Y-106787547D01*
X192425800Y-106787547D01*
X192204869Y-106809307D01*
X191992429Y-106873750D01*
X191796643Y-106978400D01*
X191625035Y-107119235D01*
X191484200Y-107290843D01*
X191379550Y-107486629D01*
X191315107Y-107699069D01*
X191293347Y-107920000D01*
X191293347Y-110520000D01*
X191315107Y-110740931D01*
X191379550Y-110953371D01*
X191484200Y-111149157D01*
X191625035Y-111320765D01*
X191796643Y-111461600D01*
X191992429Y-111566250D01*
X192204869Y-111630693D01*
X192425800Y-111652453D01*
X195025800Y-111652453D01*
X195246731Y-111630693D01*
X195459171Y-111566250D01*
X195654957Y-111461600D01*
X195826565Y-111320765D01*
X195967400Y-111149157D01*
X196072050Y-110953371D01*
X196136493Y-110740931D01*
X196158253Y-110520000D01*
X196158253Y-109088472D01*
X200229951Y-105016775D01*
X200292029Y-104965829D01*
X200342975Y-104903751D01*
X200342978Y-104903748D01*
X200495346Y-104718086D01*
X200646424Y-104435440D01*
X200646998Y-104433548D01*
X200739458Y-104128748D01*
X200763000Y-103889725D01*
X200763000Y-103889715D01*
X200770871Y-103809801D01*
X200763000Y-103729886D01*
X200763000Y-73993914D01*
X200770871Y-73913999D01*
X200763000Y-73834085D01*
X200763000Y-73834075D01*
X200739458Y-73595052D01*
X200646425Y-73288362D01*
X200495346Y-73005714D01*
X200452085Y-72953000D01*
X200342978Y-72820052D01*
X200342975Y-72820049D01*
X200292029Y-72757971D01*
X200229952Y-72707026D01*
X197040979Y-69518054D01*
X196990029Y-69455971D01*
X196742286Y-69252654D01*
X196459638Y-69101575D01*
X196152948Y-69008542D01*
X195913925Y-68985000D01*
X195913914Y-68985000D01*
X195834000Y-68977129D01*
X195754086Y-68985000D01*
X189563914Y-68985000D01*
X189483999Y-68977129D01*
X189404085Y-68985000D01*
X189404075Y-68985000D01*
X189165052Y-69008542D01*
X188858362Y-69101575D01*
X188765781Y-69151061D01*
X188575714Y-69252654D01*
X188390052Y-69405022D01*
X188390049Y-69405025D01*
X188327971Y-69455971D01*
X188277025Y-69518049D01*
X183056050Y-74739025D01*
X182993972Y-74789971D01*
X182943026Y-74852049D01*
X182943022Y-74852053D01*
X182790654Y-75037715D01*
X182746149Y-75120978D01*
X182639576Y-75320362D01*
X182564161Y-75568975D01*
X182546543Y-75627053D01*
X182515129Y-75946000D01*
X182523001Y-76025924D01*
X182523000Y-78628967D01*
X182497851Y-78654116D01*
X182265077Y-79002488D01*
X182104739Y-79389577D01*
X182023000Y-79800509D01*
X182023000Y-79836074D01*
X168324050Y-93535025D01*
X168261972Y-93585971D01*
X168211026Y-93648049D01*
X168211022Y-93648053D01*
X168058654Y-93833715D01*
X167948181Y-94040395D01*
X167907576Y-94116362D01*
X167860750Y-94270729D01*
X167814543Y-94423053D01*
X167783129Y-94742000D01*
X167791001Y-94821924D01*
X167791001Y-99518081D01*
X167683099Y-99356594D01*
X167470406Y-99143901D01*
X167220306Y-98976790D01*
X166942410Y-98861681D01*
X166763737Y-98826141D01*
X166733000Y-98795405D01*
X166733000Y-77527595D01*
X171978142Y-72282453D01*
X173940000Y-72282453D01*
X174160931Y-72260693D01*
X174373371Y-72196250D01*
X174569157Y-72091600D01*
X174740765Y-71950765D01*
X174881600Y-71779157D01*
X174986250Y-71583371D01*
X175050693Y-71370931D01*
X175072453Y-71150000D01*
X175072453Y-68550000D01*
X175050693Y-68329069D01*
X175018449Y-68222772D01*
X179253000Y-68222772D01*
X179253000Y-68937228D01*
X179392383Y-69637957D01*
X179665794Y-70298029D01*
X180062725Y-70892078D01*
X180567922Y-71397275D01*
X181161971Y-71794206D01*
X181822043Y-72067617D01*
X182522772Y-72207000D01*
X183237228Y-72207000D01*
X183937957Y-72067617D01*
X184598029Y-71794206D01*
X185192078Y-71397275D01*
X185697275Y-70892078D01*
X186094206Y-70298029D01*
X186367617Y-69637957D01*
X186507000Y-68937228D01*
X186507000Y-68222772D01*
X186367617Y-67522043D01*
X186094206Y-66861971D01*
X185697275Y-66267922D01*
X185192078Y-65762725D01*
X184598029Y-65365794D01*
X183937957Y-65092383D01*
X183237228Y-64953000D01*
X182522772Y-64953000D01*
X181822043Y-65092383D01*
X181161971Y-65365794D01*
X180567922Y-65762725D01*
X180062725Y-66267922D01*
X179665794Y-66861971D01*
X179392383Y-67522043D01*
X179253000Y-68222772D01*
X175018449Y-68222772D01*
X174986250Y-68116629D01*
X174881600Y-67920843D01*
X174740765Y-67749235D01*
X174569157Y-67608400D01*
X174373371Y-67503750D01*
X174160931Y-67439307D01*
X173940000Y-67417547D01*
X171340000Y-67417547D01*
X171119069Y-67439307D01*
X170906629Y-67503750D01*
X170710843Y-67608400D01*
X170539235Y-67749235D01*
X170398400Y-67920843D01*
X170293750Y-68116629D01*
X170229307Y-68329069D01*
X170207547Y-68550000D01*
X170207547Y-70511858D01*
X164639188Y-76080217D01*
X164591420Y-76119419D01*
X164552218Y-76167187D01*
X164552217Y-76167188D01*
X164434964Y-76310062D01*
X164318707Y-76527563D01*
X164247117Y-76763566D01*
X164222943Y-77009000D01*
X164229001Y-77070506D01*
X164229000Y-99252504D01*
X164222943Y-99314000D01*
X164229000Y-99375496D01*
X164229000Y-99375497D01*
X164247116Y-99559434D01*
X164318707Y-99795437D01*
X164434964Y-100012938D01*
X164591419Y-100203581D01*
X164639192Y-100242787D01*
X164993141Y-100596737D01*
X165028681Y-100775410D01*
X165143790Y-101053306D01*
X165310901Y-101303406D01*
X165523594Y-101516099D01*
X165773694Y-101683210D01*
X166051590Y-101798319D01*
X166346604Y-101857000D01*
X166647396Y-101857000D01*
X166942410Y-101798319D01*
X167220306Y-101683210D01*
X167470406Y-101516099D01*
X167683099Y-101303406D01*
X167791000Y-101141920D01*
X167791000Y-106320685D01*
X167783129Y-106400600D01*
X167791000Y-106480514D01*
X167791000Y-106480524D01*
X167814542Y-106719547D01*
X167907575Y-107026237D01*
X168058654Y-107308885D01*
X168261971Y-107556629D01*
X168324054Y-107607579D01*
X170379085Y-109662611D01*
X170395593Y-109745601D01*
X170537990Y-110089377D01*
X170744718Y-110398767D01*
X170810551Y-110464600D01*
X170744718Y-110530433D01*
X170537990Y-110839823D01*
X170395593Y-111183599D01*
X170323000Y-111548550D01*
X170323000Y-111920650D01*
X170395593Y-112285601D01*
X170537990Y-112629377D01*
X170744718Y-112938767D01*
X170810551Y-113004600D01*
X170744718Y-113070433D01*
X170537990Y-113379823D01*
X170395593Y-113723599D01*
X170323000Y-114088550D01*
X170323000Y-114460650D01*
X170395593Y-114825601D01*
X170537990Y-115169377D01*
X170744718Y-115478767D01*
X170810551Y-115544600D01*
X170744718Y-115610433D01*
X170537990Y-115919823D01*
X170395593Y-116263599D01*
X170323000Y-116628550D01*
X170323000Y-117000650D01*
X170395593Y-117365601D01*
X170537990Y-117709377D01*
X170744718Y-118018767D01*
X170810551Y-118084600D01*
X170744718Y-118150433D01*
X170537990Y-118459823D01*
X170395593Y-118803599D01*
X170323000Y-119168550D01*
X170323000Y-119540650D01*
X170395593Y-119905601D01*
X170537990Y-120249377D01*
X170744718Y-120558767D01*
X170810551Y-120624600D01*
X170744718Y-120690433D01*
X170537990Y-120999823D01*
X170395593Y-121343599D01*
X170323000Y-121708550D01*
X170323000Y-122080650D01*
X170395593Y-122445601D01*
X170537990Y-122789377D01*
X170744718Y-123098767D01*
X170810551Y-123164600D01*
X170744718Y-123230433D01*
X170537990Y-123539823D01*
X170395593Y-123883599D01*
X170323000Y-124248550D01*
X170323000Y-124620650D01*
X170395593Y-124985601D01*
X170537990Y-125329377D01*
X170744718Y-125638767D01*
X170810551Y-125704600D01*
X170744718Y-125770433D01*
X170537990Y-126079823D01*
X170395593Y-126423599D01*
X170323000Y-126788550D01*
X170323000Y-127160650D01*
X170395593Y-127525601D01*
X170537990Y-127869377D01*
X170744718Y-128178767D01*
X170810551Y-128244600D01*
X170792551Y-128262600D01*
X168641195Y-128262600D01*
X161526000Y-121147405D01*
X161526000Y-102931495D01*
X161532057Y-102869999D01*
X161522145Y-102769366D01*
X161507884Y-102624565D01*
X161436293Y-102388562D01*
X161417743Y-102353857D01*
X161320036Y-102171060D01*
X161202783Y-102028187D01*
X161163581Y-101980419D01*
X161115813Y-101941217D01*
X158916787Y-99742192D01*
X158877581Y-99694419D01*
X158686939Y-99537964D01*
X158469438Y-99421707D01*
X158233435Y-99350116D01*
X158049498Y-99332000D01*
X158049496Y-99332000D01*
X157988000Y-99325943D01*
X157926504Y-99332000D01*
X137163095Y-99332000D01*
X137101599Y-99325943D01*
X137040103Y-99332000D01*
X137040102Y-99332000D01*
X136856165Y-99350116D01*
X136620162Y-99421707D01*
X136402660Y-99537964D01*
X136289221Y-99631061D01*
X136212019Y-99694419D01*
X136172817Y-99742187D01*
X135257959Y-100657045D01*
X134909839Y-100587800D01*
X134431761Y-100587800D01*
X133962870Y-100681068D01*
X133521185Y-100864021D01*
X133123678Y-101129626D01*
X132785626Y-101467678D01*
X132520021Y-101865185D01*
X132337068Y-102306870D01*
X132243800Y-102775761D01*
X128152000Y-102775761D01*
X128152000Y-99364024D01*
X133501181Y-99364024D01*
X133633117Y-99659112D01*
X133973845Y-99829959D01*
X134341357Y-99931050D01*
X134721529Y-99958501D01*
X135099751Y-99911257D01*
X135461490Y-99791133D01*
X135708483Y-99659112D01*
X135840419Y-99364024D01*
X134670800Y-98194405D01*
X133501181Y-99364024D01*
X128152000Y-99364024D01*
X128152000Y-98065529D01*
X132727099Y-98065529D01*
X132774343Y-98443751D01*
X132894467Y-98805490D01*
X133026488Y-99052483D01*
X133321576Y-99184419D01*
X134491195Y-98014800D01*
X134850405Y-98014800D01*
X136020024Y-99184419D01*
X136315112Y-99052483D01*
X136485959Y-98711755D01*
X136587050Y-98344243D01*
X136590936Y-98290413D01*
X143824192Y-98290413D01*
X143919956Y-98554814D01*
X144209571Y-98695704D01*
X144521108Y-98777384D01*
X144842595Y-98796718D01*
X145161675Y-98752961D01*
X145466088Y-98647795D01*
X145640044Y-98554814D01*
X145735808Y-98290413D01*
X144780000Y-97334605D01*
X143824192Y-98290413D01*
X136590936Y-98290413D01*
X136614501Y-97964071D01*
X136567257Y-97585849D01*
X136447133Y-97224110D01*
X136443651Y-97217595D01*
X143138282Y-97217595D01*
X143182039Y-97536675D01*
X143287205Y-97841088D01*
X143380186Y-98015044D01*
X143644587Y-98110808D01*
X144600395Y-97155000D01*
X144959605Y-97155000D01*
X145915413Y-98110808D01*
X146179814Y-98015044D01*
X146320704Y-97725429D01*
X146402384Y-97413892D01*
X146421718Y-97092405D01*
X146377961Y-96773325D01*
X146272795Y-96468912D01*
X146179814Y-96294956D01*
X145915413Y-96199192D01*
X144959605Y-97155000D01*
X144600395Y-97155000D01*
X143644587Y-96199192D01*
X143380186Y-96294956D01*
X143239296Y-96584571D01*
X143157616Y-96896108D01*
X143138282Y-97217595D01*
X136443651Y-97217595D01*
X136315112Y-96977117D01*
X136020024Y-96845181D01*
X134850405Y-98014800D01*
X134491195Y-98014800D01*
X133321576Y-96845181D01*
X133026488Y-96977117D01*
X132855641Y-97317845D01*
X132754550Y-97685357D01*
X132727099Y-98065529D01*
X128152000Y-98065529D01*
X128152000Y-96665576D01*
X133501181Y-96665576D01*
X134670800Y-97835195D01*
X135840419Y-96665576D01*
X135708483Y-96370488D01*
X135367755Y-96199641D01*
X135000243Y-96098550D01*
X134620071Y-96071099D01*
X134241849Y-96118343D01*
X133880110Y-96238467D01*
X133633117Y-96370488D01*
X133501181Y-96665576D01*
X128152000Y-96665576D01*
X128152000Y-96019587D01*
X143824192Y-96019587D01*
X144780000Y-96975395D01*
X145735808Y-96019587D01*
X145640044Y-95755186D01*
X145350429Y-95614296D01*
X145038892Y-95532616D01*
X144717405Y-95513282D01*
X144398325Y-95557039D01*
X144093912Y-95662205D01*
X143919956Y-95755186D01*
X143824192Y-96019587D01*
X128152000Y-96019587D01*
X128152000Y-91714800D01*
X132238347Y-91714800D01*
X132238347Y-94314800D01*
X132260107Y-94535731D01*
X132324550Y-94748171D01*
X132429200Y-94943957D01*
X132570035Y-95115565D01*
X132741643Y-95256400D01*
X132937429Y-95361050D01*
X133149869Y-95425493D01*
X133370800Y-95447253D01*
X135970800Y-95447253D01*
X136191731Y-95425493D01*
X136404171Y-95361050D01*
X136599957Y-95256400D01*
X136771565Y-95115565D01*
X136912400Y-94943957D01*
X137017050Y-94748171D01*
X137081493Y-94535731D01*
X137103253Y-94314800D01*
X137103253Y-91714800D01*
X137081493Y-91493869D01*
X137017050Y-91281429D01*
X136912400Y-91085643D01*
X136771565Y-90914035D01*
X136599957Y-90773200D01*
X136404171Y-90668550D01*
X136191731Y-90604107D01*
X135970800Y-90582347D01*
X133370800Y-90582347D01*
X133149869Y-90604107D01*
X132937429Y-90668550D01*
X132741643Y-90773200D01*
X132570035Y-90914035D01*
X132429200Y-91085643D01*
X132324550Y-91281429D01*
X132260107Y-91493869D01*
X132238347Y-91714800D01*
X128152000Y-91714800D01*
X128152000Y-87757000D01*
X152400000Y-87757000D01*
X152424776Y-87754560D01*
X152448601Y-87747333D01*
X152470557Y-87735597D01*
X152489803Y-87719803D01*
X152505597Y-87700557D01*
X152517333Y-87678601D01*
X152524560Y-87654776D01*
X152527000Y-87630000D01*
X152527000Y-71199224D01*
X153850381Y-71199224D01*
X153982317Y-71494312D01*
X154323045Y-71665159D01*
X154690557Y-71766250D01*
X155070729Y-71793701D01*
X155448951Y-71746457D01*
X155810690Y-71626333D01*
X156057683Y-71494312D01*
X156189619Y-71199224D01*
X155020000Y-70029605D01*
X153850381Y-71199224D01*
X152527000Y-71199224D01*
X152527000Y-69900729D01*
X153076299Y-69900729D01*
X153123543Y-70278951D01*
X153243667Y-70640690D01*
X153375688Y-70887683D01*
X153670776Y-71019619D01*
X154840395Y-69850000D01*
X155199605Y-69850000D01*
X156369224Y-71019619D01*
X156664312Y-70887683D01*
X156835159Y-70546955D01*
X156936250Y-70179443D01*
X156963701Y-69799271D01*
X156916457Y-69421049D01*
X156796333Y-69059310D01*
X156664312Y-68812317D01*
X156369224Y-68680381D01*
X155199605Y-69850000D01*
X154840395Y-69850000D01*
X153670776Y-68680381D01*
X153375688Y-68812317D01*
X153204841Y-69153045D01*
X153103750Y-69520557D01*
X153076299Y-69900729D01*
X152527000Y-69900729D01*
X152527000Y-68500776D01*
X153850381Y-68500776D01*
X155020000Y-69670395D01*
X156140395Y-68550000D01*
X157587547Y-68550000D01*
X157587547Y-71150000D01*
X157609307Y-71370931D01*
X157673750Y-71583371D01*
X157778400Y-71779157D01*
X157919235Y-71950765D01*
X158090843Y-72091600D01*
X158286629Y-72196250D01*
X158499069Y-72260693D01*
X158720000Y-72282453D01*
X161320000Y-72282453D01*
X161540931Y-72260693D01*
X161753371Y-72196250D01*
X161949157Y-72091600D01*
X162120765Y-71950765D01*
X162261600Y-71779157D01*
X162366250Y-71583371D01*
X162430693Y-71370931D01*
X162447604Y-71199224D01*
X166470381Y-71199224D01*
X166602317Y-71494312D01*
X166943045Y-71665159D01*
X167310557Y-71766250D01*
X167690729Y-71793701D01*
X168068951Y-71746457D01*
X168430690Y-71626333D01*
X168677683Y-71494312D01*
X168809619Y-71199224D01*
X167640000Y-70029605D01*
X166470381Y-71199224D01*
X162447604Y-71199224D01*
X162452453Y-71150000D01*
X162452453Y-69900729D01*
X165696299Y-69900729D01*
X165743543Y-70278951D01*
X165863667Y-70640690D01*
X165995688Y-70887683D01*
X166290776Y-71019619D01*
X167460395Y-69850000D01*
X167819605Y-69850000D01*
X168989224Y-71019619D01*
X169284312Y-70887683D01*
X169455159Y-70546955D01*
X169556250Y-70179443D01*
X169583701Y-69799271D01*
X169536457Y-69421049D01*
X169416333Y-69059310D01*
X169284312Y-68812317D01*
X168989224Y-68680381D01*
X167819605Y-69850000D01*
X167460395Y-69850000D01*
X166290776Y-68680381D01*
X165995688Y-68812317D01*
X165824841Y-69153045D01*
X165723750Y-69520557D01*
X165696299Y-69900729D01*
X162452453Y-69900729D01*
X162452453Y-68550000D01*
X162447605Y-68500776D01*
X166470381Y-68500776D01*
X167640000Y-69670395D01*
X168809619Y-68500776D01*
X168677683Y-68205688D01*
X168336955Y-68034841D01*
X167969443Y-67933750D01*
X167589271Y-67906299D01*
X167211049Y-67953543D01*
X166849310Y-68073667D01*
X166602317Y-68205688D01*
X166470381Y-68500776D01*
X162447605Y-68500776D01*
X162430693Y-68329069D01*
X162366250Y-68116629D01*
X162261600Y-67920843D01*
X162120765Y-67749235D01*
X161949157Y-67608400D01*
X161753371Y-67503750D01*
X161540931Y-67439307D01*
X161320000Y-67417547D01*
X158720000Y-67417547D01*
X158499069Y-67439307D01*
X158286629Y-67503750D01*
X158090843Y-67608400D01*
X157919235Y-67749235D01*
X157778400Y-67920843D01*
X157673750Y-68116629D01*
X157609307Y-68329069D01*
X157587547Y-68550000D01*
X156140395Y-68550000D01*
X156189619Y-68500776D01*
X156057683Y-68205688D01*
X155716955Y-68034841D01*
X155349443Y-67933750D01*
X154969271Y-67906299D01*
X154591049Y-67953543D01*
X154229310Y-68073667D01*
X153982317Y-68205688D01*
X153850381Y-68500776D01*
X152527000Y-68500776D01*
X152527000Y-63382000D01*
X198063657Y-63382000D01*
X198635202Y-63438041D01*
G37*
%TD.AperFunction*%
D24*
X197509000Y-74587926D02*
X197509001Y-96932405D01*
X196508787Y-95932192D01*
X196469581Y-95884419D01*
X196278939Y-95727964D01*
X196061438Y-95611707D01*
X195825435Y-95540116D01*
X195641498Y-95522000D01*
X195641496Y-95522000D01*
X195580000Y-95515943D01*
X195518504Y-95522000D01*
X195172674Y-95522000D01*
X195190041Y-95504633D01*
X195075026Y-95389618D01*
X195370112Y-95257683D01*
X195540959Y-94916955D01*
X195642050Y-94549443D01*
X195669501Y-94169271D01*
X195622257Y-93791049D01*
X195502133Y-93429310D01*
X195370112Y-93182317D01*
X195075024Y-93050381D01*
X193905405Y-94220000D01*
X193919548Y-94234143D01*
X193739943Y-94413748D01*
X193725800Y-94399605D01*
X193711658Y-94413748D01*
X193532053Y-94234143D01*
X193546195Y-94220000D01*
X192376576Y-93050381D01*
X192081488Y-93182317D01*
X191910641Y-93523045D01*
X191809550Y-93890557D01*
X191782099Y-94270729D01*
X191829343Y-94648951D01*
X191949467Y-95010690D01*
X192081488Y-95257683D01*
X192376574Y-95389618D01*
X192261559Y-95504633D01*
X192273329Y-95516403D01*
X192216504Y-95522000D01*
X192216502Y-95522000D01*
X192032565Y-95540116D01*
X191796562Y-95611707D01*
X191579061Y-95727964D01*
X191388419Y-95884419D01*
X191349213Y-95932192D01*
X182258140Y-105023265D01*
X182192947Y-104695515D01*
X182047685Y-104344823D01*
X181836799Y-104029209D01*
X181568391Y-103760801D01*
X181252777Y-103549915D01*
X180902085Y-103404653D01*
X180529793Y-103330600D01*
X180150207Y-103330600D01*
X179777915Y-103404653D01*
X179427223Y-103549915D01*
X179111609Y-103760801D01*
X178843201Y-104029209D01*
X178632315Y-104344823D01*
X178487053Y-104695515D01*
X178413000Y-105067807D01*
X178413000Y-105447393D01*
X178487053Y-105819685D01*
X178632315Y-106170377D01*
X178843201Y-106485991D01*
X179111609Y-106754399D01*
X179427223Y-106965285D01*
X179777915Y-107110547D01*
X180105665Y-107175740D01*
X174258805Y-113022600D01*
X173631449Y-113022600D01*
X173613449Y-113004600D01*
X173679282Y-112938767D01*
X173886010Y-112629377D01*
X174028407Y-112285601D01*
X174101000Y-111920650D01*
X174101000Y-111548550D01*
X174028407Y-111183599D01*
X173886010Y-110839823D01*
X173679282Y-110530433D01*
X173613449Y-110464600D01*
X173679282Y-110398767D01*
X173886010Y-110089377D01*
X174028407Y-109745601D01*
X174101000Y-109380650D01*
X174101000Y-109008550D01*
X174028407Y-108643599D01*
X173886010Y-108299823D01*
X173679282Y-107990433D01*
X173416167Y-107727318D01*
X173240803Y-107610143D01*
X173293977Y-107556969D01*
X173177567Y-107440559D01*
X173417656Y-107373580D01*
X173534756Y-107124552D01*
X173601023Y-106857465D01*
X173613910Y-106582583D01*
X173572922Y-106310467D01*
X173479636Y-106051577D01*
X173417656Y-105935620D01*
X173177567Y-105868641D01*
X173293977Y-105752231D01*
X173240803Y-105699057D01*
X173416167Y-105581882D01*
X173679282Y-105318767D01*
X173886010Y-105009377D01*
X174028407Y-104665601D01*
X174101000Y-104300650D01*
X174101000Y-103928550D01*
X174028407Y-103563599D01*
X173886010Y-103219823D01*
X173839000Y-103149468D01*
X173839000Y-102781925D01*
X178330512Y-98290413D01*
X183194192Y-98290413D01*
X183289956Y-98554814D01*
X183579571Y-98695704D01*
X183891108Y-98777384D01*
X184212595Y-98796718D01*
X184531675Y-98752961D01*
X184836088Y-98647795D01*
X185010044Y-98554814D01*
X185105808Y-98290413D01*
X184150000Y-97334605D01*
X183194192Y-98290413D01*
X178330512Y-98290413D01*
X179403330Y-97217595D01*
X182508282Y-97217595D01*
X182552039Y-97536675D01*
X182657205Y-97841088D01*
X182750186Y-98015044D01*
X183014587Y-98110808D01*
X183970395Y-97155000D01*
X184329605Y-97155000D01*
X185285413Y-98110808D01*
X185549814Y-98015044D01*
X185690704Y-97725429D01*
X185772384Y-97413892D01*
X185791718Y-97092405D01*
X185747961Y-96773325D01*
X185642795Y-96468912D01*
X185549814Y-96294956D01*
X185285413Y-96199192D01*
X184329605Y-97155000D01*
X183970395Y-97155000D01*
X183014587Y-96199192D01*
X182750186Y-96294956D01*
X182609296Y-96584571D01*
X182527616Y-96896108D01*
X182508282Y-97217595D01*
X179403330Y-97217595D01*
X180601338Y-96019587D01*
X183194192Y-96019587D01*
X184150000Y-96975395D01*
X185105808Y-96019587D01*
X185010044Y-95755186D01*
X184720429Y-95614296D01*
X184408892Y-95532616D01*
X184087405Y-95513282D01*
X183768325Y-95557039D01*
X183463912Y-95662205D01*
X183289956Y-95755186D01*
X183194192Y-96019587D01*
X180601338Y-96019587D01*
X183750149Y-92870776D01*
X192556181Y-92870776D01*
X193725800Y-94040395D01*
X194895419Y-92870776D01*
X194763483Y-92575688D01*
X194422755Y-92404841D01*
X194055243Y-92303750D01*
X193675071Y-92276299D01*
X193296849Y-92323543D01*
X192935110Y-92443667D01*
X192688117Y-92575688D01*
X192556181Y-92870776D01*
X183750149Y-92870776D01*
X192088473Y-84532453D01*
X192620000Y-84532453D01*
X192840931Y-84510693D01*
X193053371Y-84446250D01*
X193249157Y-84341600D01*
X193420765Y-84200765D01*
X193561600Y-84029157D01*
X193666250Y-83833371D01*
X193730693Y-83620931D01*
X193752453Y-83400000D01*
X193752453Y-81700000D01*
X193730693Y-81479069D01*
X193666250Y-81266629D01*
X193561600Y-81070843D01*
X193420765Y-80899235D01*
X193249157Y-80758400D01*
X193090783Y-80673747D01*
X193166825Y-80514099D01*
X193211476Y-80366890D01*
X193090155Y-80137000D01*
X191897000Y-80137000D01*
X191897000Y-80157000D01*
X191643000Y-80157000D01*
X191643000Y-80137000D01*
X190449845Y-80137000D01*
X190328524Y-80366890D01*
X190373175Y-80514099D01*
X190449217Y-80673747D01*
X190290843Y-80758400D01*
X190119235Y-80899235D01*
X189978400Y-81070843D01*
X189873750Y-81266629D01*
X189809307Y-81479069D01*
X189787547Y-81700000D01*
X189787547Y-82231527D01*
X171118050Y-100901025D01*
X171055972Y-100951971D01*
X171045000Y-100965340D01*
X171045000Y-95415925D01*
X184323926Y-82137000D01*
X184359491Y-82137000D01*
X184770423Y-82055261D01*
X185157512Y-81894923D01*
X185505884Y-81662149D01*
X185802149Y-81365884D01*
X186034923Y-81017512D01*
X186195261Y-80630423D01*
X186277000Y-80219491D01*
X186277000Y-79800509D01*
X186195261Y-79389577D01*
X186034923Y-79002488D01*
X185802149Y-78654116D01*
X185777000Y-78628967D01*
X185777000Y-76619925D01*
X187661643Y-74735282D01*
X189793000Y-74735282D01*
X189793000Y-75124718D01*
X189868975Y-75506670D01*
X190018005Y-75866461D01*
X190234364Y-76190264D01*
X190244100Y-76200000D01*
X190234364Y-76209736D01*
X190018005Y-76533539D01*
X189868975Y-76893330D01*
X189793000Y-77275282D01*
X189793000Y-77664718D01*
X189868975Y-78046670D01*
X190018005Y-78406461D01*
X190234364Y-78730264D01*
X190509736Y-79005636D01*
X190620342Y-79079541D01*
X190498359Y-79243080D01*
X190373175Y-79505901D01*
X190328524Y-79653110D01*
X190449845Y-79883000D01*
X191643000Y-79883000D01*
X191643000Y-79863000D01*
X191897000Y-79863000D01*
X191897000Y-79883000D01*
X193090155Y-79883000D01*
X193211476Y-79653110D01*
X193166825Y-79505901D01*
X193041641Y-79243080D01*
X192919658Y-79079541D01*
X193030264Y-79005636D01*
X193305636Y-78730264D01*
X193521995Y-78406461D01*
X193671025Y-78046670D01*
X193747000Y-77664718D01*
X193747000Y-77275282D01*
X193671025Y-76893330D01*
X193521995Y-76533539D01*
X193305636Y-76209736D01*
X193295900Y-76200000D01*
X193305636Y-76190264D01*
X193521995Y-75866461D01*
X193671025Y-75506670D01*
X193747000Y-75124718D01*
X193747000Y-74735282D01*
X193671025Y-74353330D01*
X193521995Y-73993539D01*
X193305636Y-73669736D01*
X193030264Y-73394364D01*
X192706461Y-73178005D01*
X192346670Y-73028975D01*
X191964718Y-72953000D01*
X191575282Y-72953000D01*
X191193330Y-73028975D01*
X190833539Y-73178005D01*
X190509736Y-73394364D01*
X190234364Y-73669736D01*
X190018005Y-73993539D01*
X189868975Y-74353330D01*
X189793000Y-74735282D01*
X187661643Y-74735282D01*
X190157926Y-72239000D01*
X195160075Y-72239000D01*
X197509000Y-74587926D01*
%TA.AperFunction,Conductor*%
D25*
G36*
X197509000Y-74587926D02*
G01*
X197509001Y-96932405D01*
X196508787Y-95932192D01*
X196469581Y-95884419D01*
X196278939Y-95727964D01*
X196061438Y-95611707D01*
X195825435Y-95540116D01*
X195641498Y-95522000D01*
X195641496Y-95522000D01*
X195580000Y-95515943D01*
X195518504Y-95522000D01*
X195172674Y-95522000D01*
X195190041Y-95504633D01*
X195075026Y-95389618D01*
X195370112Y-95257683D01*
X195540959Y-94916955D01*
X195642050Y-94549443D01*
X195669501Y-94169271D01*
X195622257Y-93791049D01*
X195502133Y-93429310D01*
X195370112Y-93182317D01*
X195075024Y-93050381D01*
X193905405Y-94220000D01*
X193919548Y-94234143D01*
X193739943Y-94413748D01*
X193725800Y-94399605D01*
X193711658Y-94413748D01*
X193532053Y-94234143D01*
X193546195Y-94220000D01*
X192376576Y-93050381D01*
X192081488Y-93182317D01*
X191910641Y-93523045D01*
X191809550Y-93890557D01*
X191782099Y-94270729D01*
X191829343Y-94648951D01*
X191949467Y-95010690D01*
X192081488Y-95257683D01*
X192376574Y-95389618D01*
X192261559Y-95504633D01*
X192273329Y-95516403D01*
X192216504Y-95522000D01*
X192216502Y-95522000D01*
X192032565Y-95540116D01*
X191796562Y-95611707D01*
X191579061Y-95727964D01*
X191388419Y-95884419D01*
X191349213Y-95932192D01*
X182258140Y-105023265D01*
X182192947Y-104695515D01*
X182047685Y-104344823D01*
X181836799Y-104029209D01*
X181568391Y-103760801D01*
X181252777Y-103549915D01*
X180902085Y-103404653D01*
X180529793Y-103330600D01*
X180150207Y-103330600D01*
X179777915Y-103404653D01*
X179427223Y-103549915D01*
X179111609Y-103760801D01*
X178843201Y-104029209D01*
X178632315Y-104344823D01*
X178487053Y-104695515D01*
X178413000Y-105067807D01*
X178413000Y-105447393D01*
X178487053Y-105819685D01*
X178632315Y-106170377D01*
X178843201Y-106485991D01*
X179111609Y-106754399D01*
X179427223Y-106965285D01*
X179777915Y-107110547D01*
X180105665Y-107175740D01*
X174258805Y-113022600D01*
X173631449Y-113022600D01*
X173613449Y-113004600D01*
X173679282Y-112938767D01*
X173886010Y-112629377D01*
X174028407Y-112285601D01*
X174101000Y-111920650D01*
X174101000Y-111548550D01*
X174028407Y-111183599D01*
X173886010Y-110839823D01*
X173679282Y-110530433D01*
X173613449Y-110464600D01*
X173679282Y-110398767D01*
X173886010Y-110089377D01*
X174028407Y-109745601D01*
X174101000Y-109380650D01*
X174101000Y-109008550D01*
X174028407Y-108643599D01*
X173886010Y-108299823D01*
X173679282Y-107990433D01*
X173416167Y-107727318D01*
X173240803Y-107610143D01*
X173293977Y-107556969D01*
X173177567Y-107440559D01*
X173417656Y-107373580D01*
X173534756Y-107124552D01*
X173601023Y-106857465D01*
X173613910Y-106582583D01*
X173572922Y-106310467D01*
X173479636Y-106051577D01*
X173417656Y-105935620D01*
X173177567Y-105868641D01*
X173293977Y-105752231D01*
X173240803Y-105699057D01*
X173416167Y-105581882D01*
X173679282Y-105318767D01*
X173886010Y-105009377D01*
X174028407Y-104665601D01*
X174101000Y-104300650D01*
X174101000Y-103928550D01*
X174028407Y-103563599D01*
X173886010Y-103219823D01*
X173839000Y-103149468D01*
X173839000Y-102781925D01*
X178330512Y-98290413D01*
X183194192Y-98290413D01*
X183289956Y-98554814D01*
X183579571Y-98695704D01*
X183891108Y-98777384D01*
X184212595Y-98796718D01*
X184531675Y-98752961D01*
X184836088Y-98647795D01*
X185010044Y-98554814D01*
X185105808Y-98290413D01*
X184150000Y-97334605D01*
X183194192Y-98290413D01*
X178330512Y-98290413D01*
X179403330Y-97217595D01*
X182508282Y-97217595D01*
X182552039Y-97536675D01*
X182657205Y-97841088D01*
X182750186Y-98015044D01*
X183014587Y-98110808D01*
X183970395Y-97155000D01*
X184329605Y-97155000D01*
X185285413Y-98110808D01*
X185549814Y-98015044D01*
X185690704Y-97725429D01*
X185772384Y-97413892D01*
X185791718Y-97092405D01*
X185747961Y-96773325D01*
X185642795Y-96468912D01*
X185549814Y-96294956D01*
X185285413Y-96199192D01*
X184329605Y-97155000D01*
X183970395Y-97155000D01*
X183014587Y-96199192D01*
X182750186Y-96294956D01*
X182609296Y-96584571D01*
X182527616Y-96896108D01*
X182508282Y-97217595D01*
X179403330Y-97217595D01*
X180601338Y-96019587D01*
X183194192Y-96019587D01*
X184150000Y-96975395D01*
X185105808Y-96019587D01*
X185010044Y-95755186D01*
X184720429Y-95614296D01*
X184408892Y-95532616D01*
X184087405Y-95513282D01*
X183768325Y-95557039D01*
X183463912Y-95662205D01*
X183289956Y-95755186D01*
X183194192Y-96019587D01*
X180601338Y-96019587D01*
X183750149Y-92870776D01*
X192556181Y-92870776D01*
X193725800Y-94040395D01*
X194895419Y-92870776D01*
X194763483Y-92575688D01*
X194422755Y-92404841D01*
X194055243Y-92303750D01*
X193675071Y-92276299D01*
X193296849Y-92323543D01*
X192935110Y-92443667D01*
X192688117Y-92575688D01*
X192556181Y-92870776D01*
X183750149Y-92870776D01*
X192088473Y-84532453D01*
X192620000Y-84532453D01*
X192840931Y-84510693D01*
X193053371Y-84446250D01*
X193249157Y-84341600D01*
X193420765Y-84200765D01*
X193561600Y-84029157D01*
X193666250Y-83833371D01*
X193730693Y-83620931D01*
X193752453Y-83400000D01*
X193752453Y-81700000D01*
X193730693Y-81479069D01*
X193666250Y-81266629D01*
X193561600Y-81070843D01*
X193420765Y-80899235D01*
X193249157Y-80758400D01*
X193090783Y-80673747D01*
X193166825Y-80514099D01*
X193211476Y-80366890D01*
X193090155Y-80137000D01*
X191897000Y-80137000D01*
X191897000Y-80157000D01*
X191643000Y-80157000D01*
X191643000Y-80137000D01*
X190449845Y-80137000D01*
X190328524Y-80366890D01*
X190373175Y-80514099D01*
X190449217Y-80673747D01*
X190290843Y-80758400D01*
X190119235Y-80899235D01*
X189978400Y-81070843D01*
X189873750Y-81266629D01*
X189809307Y-81479069D01*
X189787547Y-81700000D01*
X189787547Y-82231527D01*
X171118050Y-100901025D01*
X171055972Y-100951971D01*
X171045000Y-100965340D01*
X171045000Y-95415925D01*
X184323926Y-82137000D01*
X184359491Y-82137000D01*
X184770423Y-82055261D01*
X185157512Y-81894923D01*
X185505884Y-81662149D01*
X185802149Y-81365884D01*
X186034923Y-81017512D01*
X186195261Y-80630423D01*
X186277000Y-80219491D01*
X186277000Y-79800509D01*
X186195261Y-79389577D01*
X186034923Y-79002488D01*
X185802149Y-78654116D01*
X185777000Y-78628967D01*
X185777000Y-76619925D01*
X187661643Y-74735282D01*
X189793000Y-74735282D01*
X189793000Y-75124718D01*
X189868975Y-75506670D01*
X190018005Y-75866461D01*
X190234364Y-76190264D01*
X190244100Y-76200000D01*
X190234364Y-76209736D01*
X190018005Y-76533539D01*
X189868975Y-76893330D01*
X189793000Y-77275282D01*
X189793000Y-77664718D01*
X189868975Y-78046670D01*
X190018005Y-78406461D01*
X190234364Y-78730264D01*
X190509736Y-79005636D01*
X190620342Y-79079541D01*
X190498359Y-79243080D01*
X190373175Y-79505901D01*
X190328524Y-79653110D01*
X190449845Y-79883000D01*
X191643000Y-79883000D01*
X191643000Y-79863000D01*
X191897000Y-79863000D01*
X191897000Y-79883000D01*
X193090155Y-79883000D01*
X193211476Y-79653110D01*
X193166825Y-79505901D01*
X193041641Y-79243080D01*
X192919658Y-79079541D01*
X193030264Y-79005636D01*
X193305636Y-78730264D01*
X193521995Y-78406461D01*
X193671025Y-78046670D01*
X193747000Y-77664718D01*
X193747000Y-77275282D01*
X193671025Y-76893330D01*
X193521995Y-76533539D01*
X193305636Y-76209736D01*
X193295900Y-76200000D01*
X193305636Y-76190264D01*
X193521995Y-75866461D01*
X193671025Y-75506670D01*
X193747000Y-75124718D01*
X193747000Y-74735282D01*
X193671025Y-74353330D01*
X193521995Y-73993539D01*
X193305636Y-73669736D01*
X193030264Y-73394364D01*
X192706461Y-73178005D01*
X192346670Y-73028975D01*
X191964718Y-72953000D01*
X191575282Y-72953000D01*
X191193330Y-73028975D01*
X190833539Y-73178005D01*
X190509736Y-73394364D01*
X190234364Y-73669736D01*
X190018005Y-73993539D01*
X189868975Y-74353330D01*
X189793000Y-74735282D01*
X187661643Y-74735282D01*
X190157926Y-72239000D01*
X195160075Y-72239000D01*
X197509000Y-74587926D01*
G37*
%TD.AperFunction*%
D24*
X172405748Y-106640458D02*
X172391605Y-106654600D01*
X172405748Y-106668743D01*
X172226143Y-106848348D01*
X172212000Y-106834205D01*
X172197858Y-106848348D01*
X172018253Y-106668743D01*
X172032395Y-106654600D01*
X172018253Y-106640458D01*
X172197858Y-106460853D01*
X172212000Y-106474995D01*
X172226143Y-106460853D01*
X172405748Y-106640458D01*
%TA.AperFunction,Conductor*%
D25*
G36*
X172405748Y-106640458D02*
G01*
X172391605Y-106654600D01*
X172405748Y-106668743D01*
X172226143Y-106848348D01*
X172212000Y-106834205D01*
X172197858Y-106848348D01*
X172018253Y-106668743D01*
X172032395Y-106654600D01*
X172018253Y-106640458D01*
X172197858Y-106460853D01*
X172212000Y-106474995D01*
X172226143Y-106460853D01*
X172405748Y-106640458D01*
G37*
%TD.AperFunction*%
%TD*%
M02*
