M48
; DRILL file {KiCad (5.1.10)-1} date 09/07/21 15:33:16
; FORMAT={-:-/ absolute / inch / decimal}
; #@! TF.CreationDate,2021-09-07T15:33:16+07:00
; #@! TF.GenerationSoftware,Kicad,Pcbnew,(5.1.10)-1
; #@! TF.FileFunction,Plated,1,2,PTH
FMAT,2
INCH
T1C0.0157
T2C0.0300
T3C0.0315
T4C0.0394
T5C0.0433
T6C0.0512
T7C0.1378
%
G90
G05
T1
X5.61Y-5.36
X6.555Y-3.95
T2
X6.18Y-4.099
X6.18Y-4.199
X6.18Y-4.299
X6.18Y-4.399
X6.18Y-4.499
X6.18Y-4.599
X6.18Y-4.699
X6.18Y-4.799
X6.18Y-4.899
X6.18Y-4.999
X6.18Y-5.099
X6.18Y-5.199
X6.18Y-5.299
X6.18Y-5.399
X6.18Y-5.499
X6.18Y-5.599
X6.18Y-5.699
X6.18Y-5.799
X6.18Y-5.899
X6.18Y-5.999
X6.78Y-4.099
X6.78Y-4.199
X6.78Y-4.299
X6.78Y-4.399
X6.78Y-4.499
X6.78Y-4.599
X6.78Y-4.699
X6.78Y-4.799
X6.78Y-4.899
X6.78Y-4.999
X6.78Y-5.099
X6.78Y-5.199
X6.78Y-5.299
X6.78Y-5.399
X6.78Y-5.499
X6.78Y-5.599
X6.78Y-5.699
X6.78Y-5.799
X6.78Y-5.899
X6.78Y-5.999
T3
X5.871Y-4.144
X5.871Y-4.544
X7.1Y-4.144
X7.1Y-4.544
T4
X7.55Y-2.95
X7.55Y-3.05
X7.55Y-3.15
X7.55Y-3.25
T5
X5.7Y-3.15
X5.7Y-3.825
X7.25Y-3.15
X7.25Y-3.825
T6
X5.3Y-2.65
X5.3Y-2.8469
X5.3Y-3.15
X5.3Y-3.3469
X5.302Y-3.662
X5.302Y-3.8589
X5.302Y-4.0557
X5.302Y-4.2526
X5.302Y-4.549
X5.302Y-4.7459
X5.302Y-4.9427
X5.302Y-5.1396
X5.302Y-5.436
X5.302Y-5.6329
X5.302Y-5.8297
X5.302Y-6.0266
X6.1031Y-2.75
X6.3Y-2.75
X6.6Y-2.75
X6.7969Y-2.75
X7.627Y-3.7094
X7.627Y-3.9063
X7.627Y-4.1031
X7.627Y-4.3
X7.627Y-4.6731
X7.627Y-4.87
X7.627Y-5.2361
X7.627Y-5.433
X7.627Y-5.7991
X7.627Y-5.996
T7
X5.75Y-2.7
X5.75Y-6.0
X7.2Y-2.7
X7.2Y-6.0
T0
M30
