%TF.GenerationSoftware,KiCad,Pcbnew,(5.1.10)-1*%
%TF.CreationDate,2021-09-07T15:33:10+07:00*%
%TF.ProjectId,Untitled Factory,556e7469-746c-4656-9420-466163746f72,rev?*%
%TF.SameCoordinates,Original*%
%TF.FileFunction,Soldermask,Bot*%
%TF.FilePolarity,Negative*%
%FSLAX46Y46*%
G04 Gerber Fmt 4.6, Leading zero omitted, Abs format (unit mm)*
G04 Created by KiCad (PCBNEW (5.1.10)-1) date 2021-09-07 15:33:10*
%MOMM*%
%LPD*%
G01*
G04 APERTURE LIST*
%ADD10R,2.000000X2.000000*%
%ADD11C,2.000000*%
%ADD12R,1.524000X1.524000*%
%ADD13C,1.524000*%
%ADD14C,2.600000*%
%ADD15R,2.600000X2.600000*%
%ADD16O,1.600000X1.600000*%
%ADD17C,1.600000*%
%ADD18R,1.700000X1.700000*%
%ADD19O,1.700000X1.700000*%
G04 APERTURE END LIST*
D10*
%TO.C,M1*%
X144780000Y-80010000D03*
D11*
X144780000Y-97155000D03*
X184150000Y-97155000D03*
X184150000Y-80010000D03*
%TD*%
D12*
%TO.C,U1*%
X172212000Y-152374600D03*
D13*
X172212000Y-149834600D03*
X172212000Y-147294600D03*
X172212000Y-144754600D03*
X172212000Y-142214600D03*
X172212000Y-139674600D03*
X172212000Y-137134600D03*
X172212000Y-134594600D03*
X172212000Y-132054600D03*
X172212000Y-129514600D03*
X172212000Y-126974600D03*
X172212000Y-124434600D03*
X172212000Y-121894600D03*
X172212000Y-119354600D03*
X172212000Y-116814600D03*
X172212000Y-114274600D03*
X172212000Y-111734600D03*
X172212000Y-109194600D03*
X172212000Y-106654600D03*
X172212000Y-104114600D03*
X156972000Y-104114600D03*
X156972000Y-106654600D03*
X156972000Y-109194600D03*
X156972000Y-111734600D03*
X156972000Y-114274600D03*
X156972000Y-116814600D03*
X156972000Y-119354600D03*
X156972000Y-121894600D03*
X156972000Y-124434600D03*
X156972000Y-126974600D03*
X156972000Y-129514600D03*
X156972000Y-132054600D03*
X156972000Y-134594600D03*
X156972000Y-137134600D03*
X156972000Y-139674600D03*
X156972000Y-142214600D03*
X156972000Y-144754600D03*
X156972000Y-147294600D03*
X156972000Y-149834600D03*
X156972000Y-152374600D03*
%TD*%
D14*
%TO.C,J7*%
X155020000Y-69850000D03*
D15*
X160020000Y-69850000D03*
%TD*%
D14*
%TO.C,J9*%
X134670800Y-153074400D03*
X134670800Y-148074400D03*
X134670800Y-143074400D03*
D15*
X134670800Y-138074400D03*
%TD*%
D16*
%TO.C,R2*%
X149123400Y-115417600D03*
D17*
X149123400Y-105257600D03*
%TD*%
D16*
%TO.C,R1*%
X180340000Y-115417600D03*
D17*
X180340000Y-105257600D03*
%TD*%
D15*
%TO.C,J12*%
X134620000Y-80010000D03*
D14*
X134620000Y-85010000D03*
%TD*%
%TO.C,J11*%
X134670800Y-108014800D03*
X134670800Y-103014800D03*
X134670800Y-98014800D03*
D15*
X134670800Y-93014800D03*
%TD*%
D14*
%TO.C,J10*%
X134670800Y-130544600D03*
X134670800Y-125544600D03*
X134670800Y-120544600D03*
D15*
X134670800Y-115544600D03*
%TD*%
D14*
%TO.C,J8*%
X193725800Y-94220000D03*
X193725800Y-99220000D03*
X193725800Y-104220000D03*
D15*
X193725800Y-109220000D03*
%TD*%
D14*
%TO.C,J6*%
X167640000Y-69850000D03*
D15*
X172640000Y-69850000D03*
%TD*%
D14*
%TO.C,J5*%
X193725800Y-118698000D03*
D15*
X193725800Y-123698000D03*
%TD*%
D14*
%TO.C,J4*%
X193725800Y-132998200D03*
D15*
X193725800Y-137998200D03*
%TD*%
D14*
%TO.C,J3*%
X193725800Y-147298400D03*
D15*
X193725800Y-152298400D03*
%TD*%
%TO.C,J2*%
X134620000Y-67310000D03*
D14*
X134620000Y-72310000D03*
%TD*%
D18*
%TO.C,J1*%
X191770000Y-82550000D03*
D19*
X191770000Y-80010000D03*
X191770000Y-77470000D03*
X191770000Y-74930000D03*
%TD*%
M02*
